<?xml version="1.0" standalone="no"?>
<!DOCTYPE svg PUBLIC "-//W3C//DTD SVG 20010904//EN"
 "http://www.w3.org/TR/2001/REC-SVG-20010904/DTD/svg10.dtd">
<svg version="1.0" xmlns="http://www.w3.org/2000/svg"
 width="1080.000000pt" height="1080.000000pt" viewBox="0 0 1080.000000 1080.000000"
 preserveAspectRatio="xMidYMid meet">

<g transform="translate(0.000000,1080.000000) scale(0.100000,-0.100000)"
fill="#000000" stroke="none">
<path d="M9296 8446 c-23 -36 -21 -49 5 -36 25 14 35 38 22 51 -7 7 -16 1 -27
-15z"/>
<path d="M10148 8374 c-4 -3 -68 -7 -145 -9 -183 -5 -305 -34 -518 -125 -22
-9 -65 -27 -95 -40 -115 -48 -140 -60 -140 -68 0 -5 -12 -14 -26 -20 -61 -28
-226 -147 -301 -216 -44 -42 -127 -112 -184 -157 -87 -68 -135 -109 -273 -234
-7 -5 -44 -38 -83 -72 l-71 -63 -54 43 c-76 61 -126 97 -133 97 -3 0 -31 11
-61 25 -30 14 -63 25 -74 25 -26 0 -75 -20 -253 -104 -65 -31 -123 -56 -128
-56 -5 0 -9 -5 -9 -10 0 -12 17 -5 175 70 61 29 134 61 163 72 l54 20 66 -27
c57 -24 125 -67 192 -121 8 -7 26 -22 39 -32 l25 -19 140 126 c78 69 143 128
146 131 18 18 134 113 187 151 34 25 99 81 145 123 114 107 338 255 463 306
357 147 399 158 650 165 167 4 181 1 208 -57 13 -28 15 -53 10 -124 l-6 -89
-120 -180 c-66 -99 -138 -198 -161 -222 -22 -23 -70 -76 -106 -118 -57 -67
-167 -168 -251 -231 -14 -10 -80 -60 -145 -110 -110 -84 -259 -177 -429 -269
-38 -21 -88 -50 -110 -65 -22 -15 -72 -45 -110 -65 -102 -54 -100 -50 -71
-127 28 -73 54 -297 39 -335 -15 -41 -434 -454 -468 -461 -20 -5 -43 56 -50
131 -7 76 -32 260 -46 342 -5 33 -11 84 -11 113 -1 53 -10 62 -37 39 -9 -8
-36 -22 -60 -31 -55 -21 -64 -28 -141 -99 -60 -56 -210 -177 -482 -390 -21
-16 -85 -64 -372 -271 -44 -32 -121 -86 -171 -119 -49 -33 -106 -72 -125 -87
-19 -15 -98 -74 -175 -131 -77 -57 -146 -109 -155 -116 -27 -22 -183 -137
-275 -202 -95 -68 -197 -143 -205 -151 -25 -25 -187 -140 -275 -195 -60 -37
-209 -141 -330 -230 -121 -88 -285 -206 -365 -260 -952 -650 -1053 -718 -1214
-810 -55 -31 -158 -96 -230 -143 -72 -48 -147 -97 -166 -108 -19 -12 -87 -54
-150 -94 -63 -40 -149 -93 -190 -118 -41 -25 -127 -80 -190 -121 -63 -42 -124
-81 -135 -87 -11 -6 -78 -44 -150 -84 -161 -91 -384 -198 -537 -259 -42 -17
-114 -49 -160 -72 -157 -77 -287 -128 -370 -144 -46 -9 -112 -22 -148 -30
-173 -38 -327 -48 -405 -25 -61 17 -130 84 -145 141 -18 65 -15 322 4 429 41
233 101 503 155 705 75 280 132 421 274 675 33 58 90 165 129 238 60 117 140
261 227 412 24 41 92 142 190 280 21 31 36 62 33 70 -3 8 -24 44 -47 80 -23
36 -59 93 -80 128 -21 35 -43 65 -48 69 -9 5 39 -74 120 -200 39 -60 43 -71
31 -86 -152 -208 -298 -426 -298 -448 0 -3 -9 -17 -19 -32 -11 -15 -63 -112
-117 -216 -53 -105 -114 -217 -134 -250 -31 -52 -97 -183 -153 -305 -17 -36
-65 -165 -97 -260 -24 -72 -70 -255 -70 -280 0 -11 -4 -20 -9 -20 -8 0 -30
-87 -51 -210 -6 -36 -16 -85 -21 -110 -19 -87 -47 -256 -59 -348 -14 -108 -6
-296 16 -360 8 -23 14 -50 14 -58 0 -26 51 -73 114 -105 64 -33 54 -32 216
-11 111 15 297 51 375 73 63 18 109 37 270 114 83 39 177 82 210 95 33 12 83
33 112 46 28 13 55 24 60 24 7 0 269 130 303 150 25 15 262 151 310 178 25 14
47 29 48 34 2 4 10 8 17 8 7 0 15 3 17 8 3 8 64 52 72 52 2 0 37 22 78 48 40
26 84 53 98 60 14 7 45 25 70 42 61 39 101 60 115 60 7 0 15 6 18 13 3 8 25
24 49 35 23 12 54 30 68 41 26 19 308 205 463 305 49 32 96 60 105 63 10 4 19
9 22 12 3 4 48 34 100 69 52 34 100 65 105 70 6 4 55 39 110 77 55 38 102 72
105 75 3 3 12 10 21 15 16 10 53 35 353 239 92 62 164 105 173 102 8 -3 12 -2
9 3 -6 9 33 42 128 106 33 22 72 49 86 60 15 11 40 29 56 40 16 11 31 22 34
25 3 3 27 21 53 40 27 19 72 53 100 76 63 50 155 114 162 114 19 0 309 196
356 240 34 33 90 75 199 152 63 43 164 116 225 162 60 45 122 91 136 102 15
10 80 60 145 110 66 50 135 102 155 115 217 145 372 255 441 313 13 10 34 26
48 34 39 26 252 185 283 212 16 14 32 25 35 24 4 -1 12 5 17 11 6 7 48 43 95
80 97 77 184 151 249 213 25 24 71 56 102 71 l57 28 6 -46 c3 -25 12 -89 20
-141 18 -121 35 -250 41 -321 7 -66 37 -122 64 -117 20 3 158 125 240 212 31
33 80 83 110 110 30 28 71 73 92 99 38 47 39 52 39 125 0 88 -21 220 -44 274
-21 49 -20 55 8 70 13 7 43 24 67 37 24 13 63 37 86 52 23 16 44 29 47 29 2 0
42 21 88 48 46 26 95 53 111 61 15 8 27 18 27 23 0 4 5 8 11 8 19 0 173 97
251 157 40 31 116 89 168 129 111 84 206 173 280 264 29 35 70 82 90 103 33
33 228 315 258 374 7 12 14 66 17 120 5 87 3 102 -15 131 -24 39 -94 74 -112
56z"/>
<path d="M7330 7859 l-25 -21 27 16 c35 20 47 20 65 -1 13 -16 13 -16 3 5 -13
27 -37 28 -70 1z"/>
<path d="M7261 7812 l-33 -28 22 -52 c13 -29 24 -51 26 -49 3 2 -5 26 -17 52
l-21 48 33 28 c19 16 32 29 29 29 -3 0 -21 -13 -39 -28z"/>
<path d="M7410 7825 c1 -6 7 -21 16 -35 l15 -25 -7 25 c-7 26 -24 52 -24 35z"/>
<path d="M7441 7755 c0 -5 8 -26 19 -45 11 -19 19 -30 19 -25 0 6 -8 26 -19
45 -11 19 -19 31 -19 25z"/>
<path d="M7055 7670 c-3 -6 1 -7 9 -4 18 7 21 14 7 14 -6 0 -13 -4 -16 -10z"/>
<path d="M7091 7678 c3 -2 52 -48 109 -103 l105 -100 -100 103 c-55 56 -104
102 -109 102 -5 0 -7 -1 -5 -2z"/>
<path d="M7280 7665 c0 -5 5 -17 10 -25 5 -8 10 -10 10 -5 0 6 -5 17 -10 25
-5 8 -10 11 -10 5z"/>
<path d="M6988 7625 c-55 -41 -58 -44 -47 -70 9 -18 9 -18 5 3 -4 19 5 30 45
59 42 30 57 44 47 43 -2 0 -24 -16 -50 -35z"/>
<path d="M7491 7635 c0 -5 13 -35 29 -65 16 -30 29 -50 29 -45 0 6 -13 35 -29
65 -16 30 -29 51 -29 45z"/>
<path d="M7300 7614 c0 -6 7 -19 16 -30 14 -18 14 -18 3 6 -14 31 -19 36 -19
24z"/>
<path d="M7330 7551 c0 -6 4 -13 10 -16 6 -3 7 1 4 9 -7 18 -14 21 -14 7z"/>
<path d="M6956 7517 c3 -10 9 -15 12 -12 3 3 0 11 -7 18 -10 9 -11 8 -5 -6z"/>
<path d="M7343 7513 c-15 -5 -17 -23 -4 -23 5 0 11 7 15 15 3 8 4 15 3 14 -1
0 -8 -3 -14 -6z"/>
<path d="M7551 7505 c0 -5 6 -21 14 -35 8 -14 14 -20 14 -15 0 6 -6 21 -14 35
-8 14 -14 21 -14 15z"/>
<path d="M7360 7496 c0 -11 47 -99 64 -121 9 -11 0 12 -20 50 -41 77 -44 82
-44 71z"/>
<path d="M6970 7485 c0 -5 5 -17 10 -25 5 -8 10 -10 10 -5 0 6 -5 17 -10 25
-5 8 -10 11 -10 5z"/>
<path d="M7345 7420 c28 -30 51 -57 53 -59 1 -2 4 -2 7 0 2 3 -21 30 -53 60
l-57 54 50 -55z"/>
<path d="M7580 7431 c0 -6 4 -13 10 -16 6 -3 7 1 4 9 -7 18 -14 21 -14 7z"/>
<path d="M6623 7397 c-24 -11 -43 -24 -43 -28 0 -6 81 33 99 48 13 10 -20 -1
-56 -20z"/>
<path d="M6800 7409 c14 -6 40 -24 59 -42 20 -19 29 -24 21 -11 -15 25 -71 64
-91 63 -8 0 -3 -5 11 -10z"/>
<path d="M7016 7380 c7 -27 34 -71 34 -55 -1 6 -10 26 -21 45 -15 26 -18 29
-13 10z"/>
<path d="M4528 7353 c12 -2 32 -2 45 0 12 2 2 4 -23 4 -25 0 -35 -2 -22 -4z"/>
<path d="M4638 7330 c24 -11 68 -45 97 -75 31 -32 57 -50 60 -44 4 6 4 13 1
16 -3 4 -6 0 -6 -7 0 -8 -15 4 -34 26 -39 46 -99 89 -136 98 -14 3 -6 -3 18
-14z"/>
<path d="M6533 7328 c-11 -13 -24 -30 -28 -38 -8 -16 -6 -14 34 33 14 15 22
27 19 27 -2 0 -14 -10 -25 -22z"/>
<path d="M7452 7301 c24 -27 44 -48 46 -46 7 6 -41 74 -49 69 -5 -3 -12 2 -15
10 -3 9 -11 16 -16 16 -5 0 10 -22 34 -49z"/>
<path d="M4415 7320 c-3 -6 1 -7 9 -4 18 7 21 14 7 14 -6 0 -13 -4 -16 -10z"/>
<path d="M7247 7280 c15 -27 29 -48 31 -45 3 2 -1 11 -8 20 -7 9 -11 18 -8 21
8 8 59 -57 53 -67 -4 -5 1 -6 10 -3 13 5 5 18 -37 64 -29 32 -56 58 -61 59 -4
0 5 -21 20 -49z"/>
<path d="M4369 7289 l-24 -20 28 17 c15 9 27 18 27 20 0 8 -8 4 -31 -17z"/>
<path d="M6925 7270 c9 -16 18 -30 21 -30 2 0 -2 14 -11 30 -9 17 -18 30 -21
30 -2 0 2 -13 11 -30z"/>
<path d="M4293 7242 c-23 -15 -43 -31 -43 -35 0 -4 20 6 45 23 25 17 45 33 45
35 0 7 1 7 -47 -23z"/>
<path d="M6486 7255 c-9 -26 -7 -32 5 -12 6 10 9 21 6 23 -2 3 -7 -2 -11 -11z"/>
<path d="M7070 7254 c0 -6 7 -19 16 -30 14 -18 14 -18 3 6 -14 31 -19 36 -19
24z"/>
<path d="M6664 7208 l-19 -23 25 20 c14 11 27 21 29 22 2 2 0 3 -6 3 -5 0 -18
-10 -29 -22z"/>
<path d="M6987 7156 c20 -41 38 -74 40 -72 5 5 -58 135 -68 142 -5 3 7 -28 28
-70z"/>
<path d="M7302 7175 c12 -24 23 -43 26 -41 4 5 -36 86 -43 86 -3 0 5 -20 17
-45z"/>
<path d="M6750 7190 c6 -11 13 -20 16 -20 2 0 0 9 -6 20 -6 11 -13 20 -16 20
-2 0 0 -9 6 -20z"/>
<path d="M4212 7184 c-12 -8 -21 -25 -21 -37 1 -20 2 -20 6 -2 3 11 15 28 26
37 27 22 19 23 -11 2z"/>
<path d="M7100 7186 c0 -8 4 -17 9 -20 5 -4 7 3 4 14 -6 23 -13 26 -13 6z"/>
<path d="M7365 7172 c25 -28 27 -34 15 -42 -8 -5 -10 -10 -5 -10 6 0 16 4 22
8 9 6 2 18 -25 43 l-37 34 30 -33z"/>
<path d="M4810 7163 c13 -18 25 -33 27 -33 8 0 -17 38 -33 51 -11 9 -9 2 6
-18z"/>
<path d="M6776 7147 c3 -10 9 -15 12 -12 3 3 0 11 -7 18 -10 9 -11 8 -5 -6z"/>
<path d="M6260 7129 c0 -5 5 -7 10 -4 6 3 10 8 10 11 0 2 -4 4 -10 4 -5 0 -10
-5 -10 -11z"/>
<path d="M6295 7130 c3 -5 8 -10 11 -10 2 0 4 5 4 10 0 6 -5 10 -11 10 -5 0
-7 -4 -4 -10z"/>
<path d="M6651 7124 c0 -11 3 -14 6 -6 3 7 2 16 -1 19 -3 4 -6 -2 -5 -13z"/>
<path d="M6472 7110 c0 -14 2 -19 5 -12 2 6 2 18 0 25 -3 6 -5 1 -5 -13z"/>
<path d="M7716 7115 c4 -8 10 -13 14 -10 4 2 26 -9 49 -25 22 -17 43 -30 45
-30 3 0 21 -11 41 -24 20 -14 41 -26 48 -29 13 -4 2 -18 -44 -52 -15 -11 -81
-62 -147 -112 -67 -51 -124 -93 -128 -93 -4 0 -14 -7 -23 -15 -20 -19 -147
-108 -281 -198 -58 -38 -117 -78 -132 -88 -15 -11 -29 -19 -32 -19 -2 0 -40
-24 -83 -53 -221 -151 -389 -267 -398 -274 -5 -5 -35 -24 -65 -42 -30 -17 -73
-46 -95 -62 -59 -44 -142 -103 -215 -155 -98 -68 -108 -76 -166 -119 -29 -22
-77 -57 -106 -78 -29 -21 -93 -67 -143 -103 -49 -35 -180 -125 -290 -198 -110
-73 -283 -188 -385 -257 -102 -68 -205 -137 -230 -152 -73 -44 -83 -51 -104
-70 -12 -10 -33 -25 -49 -33 -15 -8 -75 -46 -135 -85 -59 -39 -134 -89 -167
-110 -33 -21 -87 -58 -119 -81 -33 -24 -68 -47 -78 -53 -10 -5 -98 -64 -195
-130 -98 -66 -182 -122 -188 -124 -5 -2 -26 -16 -45 -30 -40 -30 -54 -38 -132
-83 -32 -18 -58 -36 -58 -40 0 -5 -5 -8 -11 -8 -6 0 -29 -12 -52 -27 -23 -16
-50 -32 -60 -38 -9 -5 -81 -51 -159 -101 -210 -134 -482 -291 -578 -333 -120
-52 -206 -93 -220 -105 -18 -16 -74 -37 -113 -42 -15 -2 -37 -9 -49 -15 -24
-13 -149 -46 -223 -60 -27 -5 -62 -14 -78 -20 -37 -16 -222 -5 -271 15 -20 8
-38 14 -40 13 -2 -1 -16 13 -32 32 -70 84 -84 237 -38 416 14 55 34 136 44
180 53 238 90 351 193 595 82 196 78 191 113 137 49 -76 55 -83 38 -48 -9 18
-32 55 -51 82 l-35 50 -20 -37 c-11 -21 -34 -74 -53 -118 -18 -45 -44 -106
-58 -136 -44 -94 -115 -321 -142 -456 -15 -71 -38 -163 -51 -204 -39 -120 -49
-207 -35 -319 15 -123 38 -172 88 -189 135 -46 251 -56 383 -31 381 72 722
232 1313 615 73 47 191 121 262 165 72 44 235 151 363 237 226 153 426 285
623 414 187 122 251 164 457 301 114 76 259 173 322 214 63 42 117 80 118 84
2 5 8 9 13 9 9 0 194 129 334 232 96 71 81 61 285 206 203 145 421 294 735
502 342 227 565 378 600 407 6 5 26 19 45 33 19 13 37 27 40 30 3 3 21 17 40
30 34 24 59 43 84 65 6 6 37 29 69 53 42 32 57 49 57 67 0 14 -4 25 -8 25 -4
0 -50 27 -102 60 -101 64 -113 69 -104 45z"/>
<path d="M4570 7113 c0 -7 4 -13 9 -13 5 0 18 -15 30 -32 11 -18 21 -28 21
-23 0 6 -13 26 -30 45 -16 19 -29 29 -30 23z"/>
<path d="M6207 7095 c-20 -14 -37 -28 -37 -31 0 -2 18 8 40 22 35 23 47 34 37
34 -1 0 -19 -11 -40 -25z"/>
<path d="M7136 7107 c3 -10 9 -15 12 -12 3 3 0 11 -7 18 -10 9 -11 8 -5 -6z"/>
<path d="M7336 7107 c3 -10 9 -15 12 -12 3 3 0 11 -7 18 -10 9 -11 8 -5 -6z"/>
<path d="M7420 7112 c0 -10 158 -167 162 -161 2 2 -34 41 -79 87 -46 45 -83
79 -83 74z"/>
<path d="M4454 7096 c-3 -8 -1 -23 6 -33 9 -16 10 -15 4 6 -4 15 -1 27 7 32
11 7 11 9 1 9 -7 0 -15 -6 -18 -14z"/>
<path d="M6321 7090 c14 -31 19 -36 19 -24 0 6 -7 19 -16 30 -14 18 -14 18 -3
-6z"/>
<path d="M4860 7080 c6 -11 13 -20 16 -20 2 0 0 9 -6 20 -6 11 -13 20 -16 20
-2 0 0 -9 6 -20z"/>
<path d="M6814 7065 c10 -22 22 -44 27 -50 6 -5 2 9 -9 33 -25 55 -39 69 -18
17z"/>
<path d="M7734 7083 c12 -21 -12 -51 -74 -93 -33 -22 -60 -43 -60 -46 0 -11
122 79 137 102 13 20 14 27 3 37 -10 9 -11 9 -6 0z"/>
<path d="M4220 7078 c0 -11 53 -134 61 -143 6 -5 -4 24 -21 64 -28 68 -40 92
-40 79z"/>
<path d="M7151 7075 c0 -5 6 -21 14 -35 8 -14 14 -20 14 -15 0 6 -6 21 -14 35
-8 14 -14 21 -14 15z"/>
<path d="M7373 7028 c28 -62 56 -116 57 -107 0 10 -70 159 -75 159 -3 0 6 -24
18 -52z"/>
<path d="M6145 7050 c-3 -5 -1 -10 4 -10 6 0 11 5 11 10 0 6 -2 10 -4 10 -3 0
-8 -4 -11 -10z"/>
<path d="M4895 7013 c15 -36 25 -52 25 -41 0 11 -30 78 -35 78 -3 0 2 -17 10
-37z"/>
<path d="M6341 7045 c0 -5 8 -26 19 -45 11 -19 19 -30 19 -25 0 6 -8 26 -19
45 -11 19 -19 31 -19 25z"/>
<path d="M6681 7048 c-1 -12 31 -89 35 -85 3 2 -4 24 -15 48 -11 24 -20 41
-20 37z"/>
<path d="M3305 7030 c-11 -5 -14 -9 -7 -9 19 -1 14 -66 -7 -92 l-19 -23 -23
28 c-50 60 -69 76 -89 76 -21 0 -66 -37 -56 -47 3 -3 12 2 21 11 31 31 63 18
104 -41 39 -58 83 -33 97 54 4 26 12 44 23 46 12 4 11 5 -4 5 -11 0 -29 -3
-40 -8z"/>
<path d="M7051 7020 c14 -31 19 -36 19 -24 0 6 -7 19 -16 30 -14 18 -14 18 -3
-6z"/>
<path d="M3180 7020 c0 -5 5 -10 10 -10 6 0 10 5 10 10 0 6 -4 10 -10 10 -5 0
-10 -4 -10 -10z"/>
<path d="M3362 6990 c0 -14 2 -19 5 -12 2 6 2 18 0 25 -3 6 -5 1 -5 -13z"/>
<path d="M4681 6948 c18 -37 35 -65 37 -63 5 5 -45 105 -60 120 -5 6 5 -20 23
-57z"/>
<path d="M6491 7000 c0 -15 38 -91 39 -79 0 4 -9 26 -20 50 -11 24 -19 37 -19
29z"/>
<path d="M7180 7001 c0 -6 4 -13 10 -16 6 -3 7 1 4 9 -7 18 -14 21 -14 7z"/>
<path d="M6855 6978 c4 -13 11 -27 16 -33 5 -5 4 5 -2 23 -12 36 -24 44 -14
10z"/>
<path d="M6029 6973 c-11 -15 -11 -16 1 -5 24 21 36 14 60 -38 13 -27 25 -48
27 -46 9 8 -48 106 -61 106 -7 0 -20 -8 -27 -17z"/>
<path d="M3904 6968 c-4 -7 -3 -8 5 -4 6 4 20 2 29 -6 15 -12 16 -11 3 5 -16
20 -27 22 -37 5z"/>
<path d="M6161 6978 c-1 -12 31 -89 35 -85 3 2 -4 24 -15 48 -11 24 -20 41
-20 37z"/>
<path d="M3042 6938 c-1 -17 2 -35 7 -42 16 -21 23 -76 11 -91 -6 -8 -9 -23
-5 -34 11 -36 -32 -95 -61 -84 -13 5 -16 3 -11 -9 4 -11 -1 -18 -13 -21 -22
-6 -45 17 -35 34 6 8 10 7 17 -2 8 -11 9 -11 5 1 -2 8 4 31 15 50 10 19 18 47
18 62 0 33 -31 68 -60 68 -26 0 -58 -32 -66 -66 -5 -20 -9 -23 -16 -12 -7 10
-8 8 -4 -5 3 -10 6 -35 7 -55 1 -31 3 -27 13 25 13 67 26 88 57 96 22 6 59
-23 59 -47 0 -27 -21 -71 -48 -99 l-26 -27 21 -21 c27 -27 60 -20 101 20 47
48 67 159 37 211 -18 32 -19 50 -2 50 7 0 21 -16 31 -36 21 -44 30 -39 20 11
-5 26 -9 33 -15 23 -5 -7 -9 -8 -9 -2 0 6 -10 15 -23 21 -21 10 -23 8 -25 -19z"/>
<path d="M4511 6950 c14 -31 19 -36 19 -24 0 6 -7 19 -16 30 -14 18 -14 18 -3
-6z"/>
<path d="M2289 6944 c-9 -12 -9 -24 1 -57 8 -23 17 -46 22 -51 17 -21 6 -36
-62 -81 -71 -47 -81 -63 -55 -85 12 -10 24 -7 62 17 86 52 90 53 101 40 6 -7
22 -37 36 -68 14 -30 41 -79 60 -108 39 -57 41 -68 22 -120 -14 -40 -41 -48
-58 -18 -6 12 -17 28 -25 35 -7 8 -11 17 -9 21 7 11 -62 13 -83 1 -11 -5 -22
-18 -26 -29 -4 -13 -12 -17 -30 -13 -34 6 -42 -20 -21 -64 9 -19 17 -56 17
-82 2 -45 2 -46 8 -12 6 31 -3 82 -24 133 -15 35 21 17 40 -20 l19 -38 6 53
c8 75 43 94 83 46 51 -62 65 -73 85 -67 22 5 42 49 42 94 0 15 -18 58 -40 96
-22 37 -54 96 -71 131 -17 34 -35 62 -40 62 -6 0 -37 -18 -69 -40 -61 -41 -75
-46 -84 -31 -3 5 20 26 52 47 97 63 94 56 66 124 -28 69 -29 80 -10 80 7 0 24
-27 36 -61 13 -33 28 -58 34 -56 6 3 49 30 95 61 71 47 87 54 100 43 14 -11
14 -10 2 6 -19 24 -24 22 -92 -23 -34 -24 -65 -38 -72 -34 -6 4 -9 4 -5 -1 9
-9 -9 -35 -23 -35 -5 0 -7 11 -3 25 4 16 2 25 -6 25 -6 0 -8 -5 -4 -12 4 -6 3
-8 -4 -4 -6 3 -16 22 -22 40 -13 39 -33 51 -51 30z"/>
<path d="M3150 6913 c1 -27 7 -75 14 -108 19 -89 5 -114 -30 -50 -19 36 -34
31 -34 -11 0 -12 -13 -40 -30 -62 -48 -67 -111 -89 -158 -56 -20 14 -22 14
-22 -1 0 -25 -29 -77 -63 -112 -58 -61 -126 -52 -161 20 -36 76 -5 185 52 187
22 0 42 -27 42 -55 0 -29 -38 -105 -52 -105 -4 0 -8 -9 -8 -20 0 -32 45 -45
83 -23 45 27 66 62 72 118 2 28 2 41 -1 30 -23 -92 -65 -145 -112 -145 -24 0
-42 22 -24 28 18 6 53 78 54 110 0 15 -3 38 -7 52 -6 24 -6 24 9 6 9 -11 16
-16 16 -10 -1 38 -74 46 -112 12 -36 -33 -47 -74 -37 -138 4 -29 5 -58 2 -64
-3 -6 -3 -8 1 -5 4 4 21 -7 37 -22 20 -18 42 -29 60 -29 36 0 108 35 116 56 5
13 8 13 15 2 7 -9 8 -7 3 8 -3 13 1 26 10 34 8 7 12 17 8 23 -4 7 0 8 11 4 13
-5 17 -3 13 5 -3 10 8 12 42 10 43 -3 50 0 87 35 23 21 49 53 58 71 9 17 19
32 22 32 3 0 2 -6 -2 -12 -4 -7 -4 -10 1 -6 4 4 14 3 22 -4 11 -9 18 -8 29 4
14 14 14 23 0 91 -18 87 -20 131 -6 122 5 -3 7 -13 4 -23 -5 -13 -4 -14 4 -3
7 10 11 10 17 1 4 -6 2 -17 -4 -23 -6 -6 -11 -16 -11 -21 0 -6 5 -3 11 7 10
18 12 18 30 1 15 -13 17 -19 7 -26 -15 -9 45 1 79 13 12 5 29 25 38 45 23 55
18 64 -7 14 -20 -39 -28 -45 -58 -48 -41 -3 -46 0 -83 51 -15 20 -32 37 -38
37 -5 0 -9 -21 -9 -47z"/>
<path d="M3818 6915 c-75 -50 -85 -62 -69 -78 9 -9 11 -8 6 5 -5 13 10 28 64
64 62 41 78 54 68 54 -1 0 -32 -20 -69 -45z"/>
<path d="M4931 6940 c14 -31 19 -36 19 -24 0 6 -7 19 -16 30 -14 18 -14 18 -3
-6z"/>
<path d="M5958 6930 c-25 -16 -49 -34 -53 -40 -4 -7 18 5 49 26 48 32 64 45
54 44 -2 0 -24 -14 -50 -30z"/>
<path d="M6381 6955 c0 -5 11 -30 24 -55 13 -25 24 -40 24 -35 0 6 -11 30 -24
55 -13 25 -24 41 -24 35z"/>
<path d="M6720 6945 c0 -5 5 -17 10 -25 5 -8 10 -10 10 -5 0 6 -5 17 -10 25
-5 8 -10 11 -10 5z"/>
<path d="M7081 6945 c1 -19 18 -51 18 -35 0 8 -4 22 -9 30 -5 8 -9 11 -9 5z"/>
<path d="M7211 6945 c0 -5 6 -21 14 -35 8 -14 14 -20 14 -15 0 6 -6 21 -14 35
-8 14 -14 21 -14 15z"/>
<path d="M3960 6915 c0 -5 5 -17 10 -25 5 -8 10 -10 10 -5 0 6 -5 17 -10 25
-5 8 -10 11 -10 5z"/>
<path d="M4301 6900 c14 -31 19 -36 19 -24 0 6 -7 19 -16 30 -14 18 -14 18 -3
-6z"/>
<path d="M2473 6849 l-92 -61 44 -87 c24 -47 77 -140 118 -206 78 -125 90
-170 27 -96 l-37 43 -12 -33 c-6 -18 -18 -41 -27 -50 -9 -10 -14 -23 -12 -29
2 -6 15 8 30 30 14 23 30 41 35 40 12 -2 38 -53 34 -69 -2 -9 8 -5 23 10 14
13 26 29 26 35 0 7 -20 41 -45 77 -45 66 -54 83 -35 72 6 -3 10 -1 10 5 0 7
-7 9 -16 6 -12 -5 -15 -2 -10 9 3 9 2 14 -3 10 -8 -5 -44 52 -101 162 -12 25
-19 50 -15 62 3 10 35 38 70 61 55 36 96 70 84 70 -2 0 -45 -28 -96 -61z"/>
<path d="M4530 6905 c0 -5 5 -17 10 -25 5 -8 10 -10 10 -5 0 6 -5 17 -10 25
-5 8 -10 11 -10 5z"/>
<path d="M6537 6889 c4 -13 8 -18 11 -10 2 7 -1 18 -6 23 -8 8 -9 4 -5 -13z"/>
<path d="M2931 6896 c2 -2 15 -9 29 -16 23 -12 24 -12 11 3 -7 10 -20 17 -29
17 -8 0 -13 -2 -11 -4z"/>
<path d="M6740 6891 c0 -6 4 -13 10 -16 6 -3 7 1 4 9 -7 18 -14 21 -14 7z"/>
<path d="M5859 6861 c-13 -10 -37 -25 -54 -34 -16 -9 -43 -28 -60 -42 -20 -17
-9 -13 30 12 71 44 123 82 114 83 -4 0 -17 -8 -30 -19z"/>
<path d="M6212 6853 c17 -41 30 -53 17 -15 -6 18 -15 35 -20 38 -5 3 -4 -7 3
-23z"/>
<path d="M7240 6875 c0 -5 5 -17 10 -25 5 -8 10 -10 10 -5 0 6 -5 17 -10 25
-5 8 -10 11 -10 5z"/>
<path d="M3329 6853 c-13 -16 -12 -17 4 -4 16 13 21 21 13 21 -2 0 -10 -8 -17
-17z"/>
<path d="M4968 6855 c5 -11 12 -27 15 -35 5 -13 6 -13 6 1 1 8 -6 24 -15 35
-15 19 -15 19 -6 -1z"/>
<path d="M6125 6852 c4 -13 1 -29 -6 -38 -10 -12 -9 -13 5 -8 18 7 21 32 5 54
-8 12 -9 10 -4 -8z"/>
<path d="M4574 6808 c28 -64 65 -135 66 -127 0 9 -80 179 -85 179 -3 0 6 -24
19 -52z"/>
<path d="M6761 6855 c0 -5 6 -21 14 -35 8 -14 14 -20 14 -15 0 6 -6 21 -14 35
-8 14 -14 21 -14 15z"/>
<path d="M6910 6855 c0 -5 5 -17 10 -25 5 -8 10 -10 10 -5 0 6 -5 17 -10 25
-5 8 -10 11 -10 5z"/>
<path d="M4730 6844 c0 -6 7 -19 16 -30 14 -18 14 -18 3 6 -14 31 -19 36 -19
24z"/>
<path d="M6431 6845 c0 -5 8 -26 19 -45 11 -19 19 -30 19 -25 0 6 -8 26 -19
45 -11 19 -19 31 -19 25z"/>
<path d="M4330 6839 c0 -4 11 -31 25 -60 14 -30 22 -43 19 -29 -7 26 -43 100
-44 89z"/>
<path d="M6561 6835 c0 -5 6 -21 14 -35 8 -14 14 -20 14 -15 0 6 -6 21 -14 35
-8 14 -14 21 -14 15z"/>
<path d="M7392 6805 c-29 -20 -50 -40 -47 -45 4 -6 8 -10 11 -10 3 0 3 4 0 9
-3 5 17 23 44 41 43 28 58 40 47 40 -1 0 -26 -16 -55 -35z"/>
<path d="M3021 6814 c0 -11 3 -14 6 -6 3 7 2 16 -1 19 -3 4 -6 -2 -5 -13z"/>
<path d="M3275 6820 c3 -5 8 -10 11 -10 2 0 4 5 4 10 0 6 -5 10 -11 10 -5 0
-7 -4 -4 -10z"/>
<path d="M7260 6821 c0 -6 4 -13 10 -16 6 -3 7 1 4 9 -7 18 -14 21 -14 7z"/>
<path d="M2906 6804 c-3 -9 -6 -32 -6 -51 l0 -36 21 27 c14 17 18 33 14 47 -5
16 -4 19 5 14 9 -5 11 -4 6 3 -10 17 -33 15 -40 -4z"/>
<path d="M3760 6815 c0 -5 5 -17 10 -25 5 -8 10 -10 10 -5 0 6 -5 17 -10 25
-5 8 -10 11 -10 5z"/>
<path d="M4014 6785 c17 -40 35 -73 36 -64 0 10 -40 99 -46 99 -2 0 2 -16 10
-35z"/>
<path d="M7120 6810 c0 -5 5 -10 11 -10 5 0 7 5 4 10 -3 6 -8 10 -11 10 -2 0
-4 -4 -4 -10z"/>
<path d="M2450 6800 c-9 -6 -10 -10 -3 -10 6 0 15 5 18 10 8 12 4 12 -15 0z"/>
<path d="M6931 6805 c0 -5 6 -21 14 -35 8 -14 14 -20 14 -15 0 6 -6 21 -14 35
-8 14 -14 21 -14 15z"/>
<path d="M6070 6779 c-22 -18 -22 -19 -3 -10 12 6 25 16 28 21 9 15 3 12 -25
-11z"/>
<path d="M6241 6799 c-1 -4 14 -40 33 -80 19 -41 35 -69 35 -64 0 11 -67 153
-68 144z"/>
<path d="M6805 6760 c9 -16 18 -30 21 -30 2 0 -2 14 -11 30 -9 17 -18 30 -21
30 -2 0 2 -13 11 -30z"/>
<path d="M7133 6735 c0 -27 2 -38 4 -22 2 15 2 37 0 50 -2 12 -4 0 -4 -28z"/>
<path d="M3781 6765 c0 -5 6 -21 14 -35 8 -14 14 -20 14 -15 0 6 -6 21 -14 35
-8 14 -14 21 -14 15z"/>
<path d="M7290 6759 c0 -5 9 -9 20 -9 11 0 20 2 20 4 0 2 -9 6 -20 9 -11 3
-20 1 -20 -4z"/>
<path d="M5689 6743 c-13 -16 -12 -17 4 -4 9 7 17 15 17 17 0 8 -8 3 -21 -13z"/>
<path d="M6030 6755 c0 -5 5 -17 10 -25 5 -8 10 -10 10 -5 0 6 -5 17 -10 25
-5 8 -10 11 -10 5z"/>
<path d="M2160 6725 c0 -8 2 -15 4 -15 2 0 6 7 10 15 3 8 1 15 -4 15 -6 0 -10
-7 -10 -15z"/>
<path d="M6480 6730 c0 -5 5 -10 11 -10 5 0 7 5 4 10 -3 6 -8 10 -11 10 -2 0
-4 -4 -4 -10z"/>
<path d="M5011 6714 c0 -11 3 -14 6 -6 3 7 2 16 -1 19 -3 4 -6 -2 -5 -13z"/>
<path d="M6617 6712 c3 -12 9 -25 14 -28 14 -8 11 10 -6 32 -13 18 -14 18 -8
-4z"/>
<path d="M2325 6710 c-3 -5 -2 -10 4 -10 5 0 13 5 16 10 3 6 2 10 -4 10 -5 0
-13 -4 -16 -10z"/>
<path d="M6830 6716 c0 -2 8 -10 18 -17 15 -13 16 -12 3 4 -13 16 -21 21 -21
13z"/>
<path d="M6930 6693 c-22 -23 -23 -25 -4 -15 12 6 24 18 28 27 7 20 5 19 -24
-12z"/>
<path d="M4050 6705 c0 -5 5 -17 10 -25 5 -8 10 -10 10 -5 0 6 -5 17 -10 25
-5 8 -10 11 -10 5z"/>
<path d="M5681 6708 c-1 -12 31 -89 35 -85 3 2 -4 24 -15 48 -11 24 -20 41
-20 37z"/>
<path d="M6050 6705 c0 -5 5 -17 10 -25 5 -8 10 -10 10 -5 0 6 -5 17 -10 25
-5 8 -10 11 -10 5z"/>
<path d="M6491 6705 c0 -5 6 -21 14 -35 8 -14 14 -20 14 -15 0 6 -6 21 -14 35
-8 14 -14 21 -14 15z"/>
<path d="M2701 6676 c-17 -20 -26 -86 -13 -86 13 0 42 51 42 74 0 22 -16 28
-29 12z m9 -46 c-16 -31 -23 -19 -9 16 6 16 13 24 16 17 2 -7 -1 -22 -7 -33z"/>
<path d="M5021 6674 c0 -11 3 -14 6 -6 3 7 2 16 -1 19 -3 4 -6 -2 -5 -13z"/>
<path d="M3820 6666 c0 -8 4 -17 9 -20 5 -4 7 3 4 14 -6 23 -13 26 -13 6z"/>
<path d="M3538 6663 c12 -2 30 -2 40 0 9 3 -1 5 -23 4 -22 0 -30 -2 -17 -4z"/>
<path d="M3438 6644 c-16 -8 -28 -17 -28 -20 0 -2 12 2 28 9 15 8 34 17 42 20
13 5 13 5 0 6 -8 0 -27 -7 -42 -15z"/>
<path d="M3600 6656 c0 -2 7 -7 16 -10 8 -3 12 -2 9 4 -6 10 -25 14 -25 6z"/>
<path d="M4802 6640 c0 -14 2 -19 5 -12 2 6 2 18 0 25 -3 6 -5 1 -5 -13z"/>
<path d="M4424 6612 c16 -45 54 -122 61 -122 2 0 -9 28 -25 63 -17 34 -30 67
-30 74 0 6 -4 15 -10 18 -5 3 -3 -12 4 -33z"/>
<path d="M6670 6611 c11 -22 24 -42 29 -46 6 -3 -2 15 -15 40 -31 55 -42 60
-14 6z"/>
<path d="M3655 6620 c10 -11 20 -20 23 -20 3 0 -3 9 -13 20 -10 11 -20 20 -23
20 -3 0 3 -9 13 -20z"/>
<path d="M4086 6620 c6 -23 34 -71 34 -59 0 3 -9 23 -20 45 -12 22 -18 28 -14
14z"/>
<path d="M5876 6627 c3 -10 9 -15 12 -12 3 3 0 11 -7 18 -10 9 -11 8 -5 -6z"/>
<path d="M7110 6631 c0 -6 -19 -33 -42 -59 -42 -47 -42 -47 -4 -12 41 38 61
68 52 78 -3 3 -6 0 -6 -7z"/>
<path d="M3846 6617 c3 -10 9 -15 12 -12 3 3 0 11 -7 18 -10 9 -11 8 -5 -6z"/>
<path d="M4660 6625 c0 -5 5 -17 10 -25 5 -8 10 -10 10 -5 0 6 -5 17 -10 25
-5 8 -10 11 -10 5z"/>
<path d="M5800 6599 l-45 -29 -17 22 c-17 23 -17 23 -12 1 9 -35 28 -34 86 2
29 19 49 34 43 34 -5 0 -30 -14 -55 -30z"/>
<path d="M6080 6621 c0 -5 5 -13 10 -16 6 -3 10 -2 10 4 0 5 -4 13 -10 16 -5
3 -10 2 -10 -4z"/>
<path d="M6530 6611 c0 -6 4 -13 10 -16 6 -3 7 1 4 9 -7 18 -14 21 -14 7z"/>
<path d="M5465 6589 c-32 -22 -27 -22 19 1 26 13 30 13 45 -6 67 -84 83 -96
22 -16 -18 23 -38 42 -44 42 -7 0 -25 -9 -42 -21z"/>
<path d="M3324 6578 l-19 -23 25 20 c14 11 27 21 29 22 2 2 0 3 -6 3 -5 0 -18
-10 -29 -22z"/>
<path d="M6330 6591 c0 -6 4 -13 10 -16 6 -3 7 1 4 9 -7 18 -14 21 -14 7z"/>
<path d="M3693 6574 c9 -11 17 -25 17 -30 1 -14 40 -61 40 -48 0 6 -7 17 -15
24 -8 7 -15 18 -15 25 0 6 -10 20 -22 31 -23 19 -23 19 -5 -2z"/>
<path d="M3860 6587 c0 -8 49 -101 49 -94 1 9 -40 97 -45 97 -2 0 -4 -1 -4 -3z"/>
<path d="M4680 6578 c-1 -18 34 -77 43 -71 6 3 5 8 0 12 -6 3 -17 20 -26 36
-9 17 -16 27 -17 23z"/>
<path d="M3270 6539 c-22 -18 -22 -19 -3 -10 12 6 25 16 28 21 9 15 3 12 -25
-11z"/>
<path d="M6351 6555 c0 -5 6 -21 14 -35 8 -14 14 -20 14 -15 0 6 -6 21 -14 35
-8 14 -14 21 -14 15z"/>
<path d="M4126 6537 c3 -10 9 -15 12 -12 3 3 0 11 -7 18 -10 9 -11 8 -5 -6z"/>
<path d="M4783 6537 c-4 -7 -19 -21 -33 -30 -13 -9 -21 -17 -17 -17 14 0 55
31 61 46 7 18 0 18 -11 1z"/>
<path d="M6577 6515 c9 -19 18 -33 21 -31 4 5 -26 66 -33 66 -3 0 3 -16 12
-35z"/>
<path d="M6752 6518 c16 -16 34 -28 41 -28 6 0 3 6 -8 12 -11 6 -29 18 -40 27
-12 9 -8 4 7 -11z"/>
<path d="M6121 6535 c0 -5 6 -21 14 -35 8 -14 14 -20 14 -15 0 6 -6 21 -14 35
-8 14 -14 21 -14 15z"/>
<path d="M5021 6523 c-1 -6 -4 -20 -7 -30 -5 -17 -5 -17 6 0 6 10 9 23 6 30
-3 9 -5 9 -5 0z"/>
<path d="M6985 6510 c-16 -11 -25 -20 -20 -20 10 0 64 39 55 40 -3 0 -18 -9
-35 -20z"/>
<path d="M3200 6498 c-51 -35 -57 -50 -35 -98 10 -22 23 -43 27 -47 5 -3 0 13
-11 36 -29 56 -27 67 19 96 22 14 40 27 40 30 0 8 -6 6 -40 -17z"/>
<path d="M2460 6474 c0 -8 5 -12 10 -9 6 3 10 10 10 16 0 5 -4 9 -10 9 -5 0
-10 -7 -10 -16z"/>
<path d="M5619 6463 c11 -16 30 -39 42 -53 l21 -25 -16 25 c-9 14 -24 37 -34
52 -9 16 -21 28 -25 28 -5 0 1 -12 12 -27z"/>
<path d="M6380 6481 c0 -6 4 -13 10 -16 6 -3 7 1 4 9 -7 18 -14 21 -14 7z"/>
<path d="M4491 6472 c-1 -14 27 -72 35 -72 2 0 -2 12 -9 28 -8 15 -17 34 -20
42 -4 10 -6 11 -6 2z"/>
<path d="M5372 6455 c0 -16 2 -22 5 -12 2 9 2 23 0 30 -3 6 -5 -1 -5 -18z"/>
<path d="M6873 6473 c9 -2 23 -2 30 0 6 3 -1 5 -18 5 -16 0 -22 -2 -12 -5z"/>
<path d="M4986 6441 c-9 -16 -37 -48 -63 -72 -27 -23 -39 -36 -28 -29 39 27
87 75 101 103 8 15 12 27 10 27 -3 0 -12 -13 -20 -29z"/>
<path d="M5951 6467 c-1 -12 41 -108 45 -104 3 2 -7 28 -20 58 -14 30 -25 50
-25 46z"/>
<path d="M6606 6457 c3 -10 9 -15 12 -12 3 3 0 11 -7 18 -10 9 -11 8 -5 -6z"/>
<path d="M2195 6450 c-3 -5 -1 -10 4 -10 6 0 11 5 11 10 0 6 -2 10 -4 10 -3 0
-8 -4 -11 -10z"/>
<path d="M3454 6450 c-12 -5 -25 -14 -29 -20 -6 -10 50 13 64 26 7 7 -13 3
-35 -6z"/>
<path d="M3765 6444 c3 -12 10 -42 14 -65 9 -43 9 -43 9 -9 1 19 -5 49 -13 65
-8 17 -12 21 -10 9z"/>
<path d="M4166 6447 c3 -10 9 -15 12 -12 3 3 0 11 -7 18 -10 9 -11 8 -5 -6z"/>
<path d="M2728 6443 c7 -3 16 -2 19 1 4 3 -2 6 -13 5 -11 0 -14 -3 -6 -6z"/>
<path d="M3933 6430 c12 -38 41 -106 49 -115 11 -12 -28 92 -43 115 -9 13 -10
13 -6 0z"/>
<path d="M6174 6407 c17 -42 45 -94 46 -86 0 10 -51 119 -56 119 -2 0 2 -15
10 -33z"/>
<path d="M2320 6408 c0 -13 7 -61 15 -108 18 -103 18 -100 1 -100 -7 0 -19 14
-26 30 -16 38 -26 38 -34 -1 -15 -76 -80 -139 -144 -139 -31 0 -42 8 -76 54
-13 19 -15 19 -39 3 -15 -9 -33 -17 -42 -17 -8 0 -15 -1 -15 -2 0 -2 7 -25 15
-52 20 -66 19 -93 -5 -106 -22 -12 -49 -2 -86 31 -20 19 -21 19 -32 -32 -32
-138 -168 -205 -218 -107 l-16 31 -19 -29 c-29 -45 -43 -94 -30 -107 31 -31
-6 -118 -44 -103 -24 9 -29 34 -16 74 11 36 11 38 -32 77 -69 64 -84 106 -49
138 20 18 62 23 62 8 0 -5 -11 -16 -25 -25 -35 -23 -32 -38 16 -80 49 -43 57
-44 69 -11 5 13 20 41 33 62 13 21 27 56 30 77 11 67 67 107 97 71 26 -32 0
-116 -45 -147 -18 -13 10 -43 44 -46 46 -5 95 46 110 116 15 73 14 85 -10 127
-15 24 -18 40 -12 46 11 11 19 1 75 -78 26 -38 73 -72 84 -61 3 3 -2 31 -11
63 -9 31 -19 55 -21 53 -2 -3 1 -20 6 -39 13 -44 13 -59 -1 -59 -5 0 -7 5 -3
12 5 7 3 8 -6 3 -9 -5 -11 -1 -6 16 3 13 3 18 0 12 -8 -19 -27 -16 -20 3 3 8
2 12 -4 9 -6 -3 -22 14 -38 39 -19 33 -33 45 -47 43 -25 -3 -32 -48 -11 -67
34 -28 5 -200 -32 -192 -7 1 -12 -5 -12 -14 0 -11 -6 -14 -21 -9 -15 5 -19 4
-14 -5 5 -8 1 -11 -10 -8 -10 1 -20 9 -23 17 -3 8 0 11 7 7 6 -4 11 -4 10 1
-1 4 5 24 13 43 15 33 16 33 20 10 3 -14 4 3 3 36 -1 73 -15 94 -61 94 -26 0
-34 4 -34 18 0 14 -2 15 -10 2 -6 -9 -5 -17 2 -21 7 -5 7 -9 -1 -13 -6 -4 -15
-26 -21 -49 -16 -65 -42 -117 -53 -110 -6 3 -7 1 -3 -5 4 -7 4 -17 0 -23 -4
-8 -9 -7 -15 2 -4 7 -12 10 -16 5 -4 -5 -2 -11 5 -13 16 -6 16 -20 -1 -26 -8
-3 -14 3 -14 16 -2 21 -43 70 -43 50 0 -6 7 -16 15 -23 8 -7 15 -17 15 -23 0
-6 -11 0 -24 12 -25 24 -25 51 0 51 20 0 29 27 15 44 -6 7 -7 16 -3 21 4 4 -4
2 -18 -5 -14 -7 -32 -16 -40 -20 -8 -4 -20 -17 -27 -30 -16 -33 1 -72 53 -120
41 -38 44 -43 38 -80 -10 -61 1 -90 35 -90 43 0 66 32 66 96 1 29 -3 48 -7 41
-14 -22 -9 11 7 50 l16 37 25 -27 c31 -33 63 -42 106 -28 53 18 87 52 106 108
10 29 22 50 26 46 4 -4 4 1 0 10 -6 17 -3 16 27 -2 78 -48 121 -9 93 85 -18
62 -19 60 18 73 24 8 34 9 36 1 10 -28 48 -50 86 -50 61 0 120 47 146 114 l10
27 22 -24 c22 -23 24 -23 42 -6 10 10 16 25 13 34 -4 8 -2 15 3 15 6 0 10 5
10 11 0 5 -4 8 -9 4 -11 -6 -17 11 -26 75 -4 33 -3 41 4 30 6 -8 11 -10 11 -4
0 6 -3 14 -7 18 -4 3 -8 14 -9 23 -2 9 12 -1 29 -23 18 -21 31 -41 30 -44 -1
-3 15 -4 35 -1 33 5 34 6 9 9 -17 2 -40 19 -64 48 -41 48 -63 56 -63 22z"/>
<path d="M3532 6415 c9 -12 24 -36 32 -55 8 -19 15 -29 16 -22 0 20 -26 67
-47 83 -17 13 -17 13 -1 -6z"/>
<path d="M3401 6404 c0 -11 3 -14 6 -6 3 7 2 16 -1 19 -3 4 -6 -2 -5 -13z"/>
<path d="M4181 6415 c0 -5 11 -30 24 -55 13 -25 24 -40 24 -35 0 6 -11 30 -24
55 -13 25 -24 41 -24 35z"/>
<path d="M6411 6415 c0 -5 6 -21 14 -35 8 -14 14 -20 14 -15 0 6 -6 21 -14 35
-8 14 -14 21 -14 15z"/>
<path d="M5382 6390 c0 -14 2 -19 5 -12 2 6 2 18 0 25 -3 6 -5 1 -5 -13z"/>
<path d="M4531 6375 c0 -5 8 -26 19 -45 11 -19 19 -30 19 -25 0 6 -8 26 -19
45 -11 19 -19 31 -19 25z"/>
<path d="M5692 6363 c8 -10 41 -54 73 -98 63 -87 89 -117 60 -70 -28 45 -136
185 -142 185 -4 0 1 -8 9 -17z"/>
<path d="M6646 6367 c3 -10 9 -15 12 -12 3 3 0 11 -7 18 -10 9 -11 8 -5 -6z"/>
<path d="M5064 6321 c-85 -55 -88 -60 -68 -110 9 -23 18 -40 20 -38 3 2 -3 21
-11 41 -9 20 -13 41 -10 47 4 5 31 25 61 44 52 34 84 44 84 27 0 -5 7 -17 15
-28 14 -17 14 -16 1 13 -9 17 -20 34 -24 37 -5 3 -36 -12 -68 -33z"/>
<path d="M5391 6344 c0 -11 3 -14 6 -6 3 7 2 16 -1 19 -3 4 -6 -2 -5 -13z"/>
<path d="M2084 6340 c-12 -5 -25 -13 -28 -19 -4 -6 -13 -8 -21 -4 -8 3 -15 0
-15 -7 0 -6 5 -8 11 -5 13 8 3 -59 -14 -93 -9 -18 -17 -22 -37 -17 -17 4 -20
3 -11 -3 8 -6 9 -12 3 -16 -6 -3 -13 -2 -17 4 -3 5 -15 10 -25 10 -23 0 -37
-37 -20 -54 9 -8 11 -6 6 11 -7 22 14 47 22 25 6 -18 33 -14 70 8 25 16 32 26
32 52 0 46 34 98 63 98 66 0 64 -67 -5 -162 -16 -22 5 -48 39 -48 30 0 103 69
103 96 -1 18 -1 18 -12 -1 -23 -43 -62 -75 -90 -75 -34 0 -35 11 -3 58 31 45
34 111 7 135 -21 19 -27 20 -58 7z"/>
<path d="M6451 6325 c0 -5 6 -21 14 -35 8 -14 14 -20 14 -15 0 6 -6 21 -14 35
-8 14 -14 21 -14 15z"/>
<path d="M1920 6309 c0 -5 5 -7 10 -4 6 3 10 8 10 11 0 2 -4 4 -10 4 -5 0 -10
-5 -10 -11z"/>
<path d="M3211 6312 c-1 -14 27 -72 35 -72 2 0 -2 12 -9 28 -8 15 -17 34 -20
42 -4 10 -6 11 -6 2z"/>
<path d="M4805 6289 c-27 -17 -54 -36 -60 -42 -11 -11 58 28 96 55 40 28 17
20 -36 -13z"/>
<path d="M6011 6315 c0 -5 6 -21 14 -35 8 -14 14 -20 14 -15 0 6 -6 21 -14 35
-8 14 -14 21 -14 15z"/>
<path d="M4386 6263 c-45 -32 -70 -44 -73 -35 -3 6 -9 12 -15 12 -7 0 -7 -5 1
-13 6 -8 8 -17 4 -20 -21 -22 19 0 75 40 56 39 68 44 84 34 17 -11 18 -10 8 9
-6 11 -12 20 -13 20 -1 0 -34 -21 -71 -47z"/>
<path d="M5402 6285 c0 -16 2 -22 5 -12 2 9 2 23 0 30 -3 6 -5 -1 -5 -18z"/>
<path d="M6603 6270 c-35 -22 -63 -42 -63 -45 0 -6 119 66 126 76 8 14 3 11
-63 -31z"/>
<path d="M2087 6293 c-4 -3 -7 -13 -7 -22 1 -13 3 -12 12 4 11 19 11 19 19 0
7 -19 8 -18 8 3 1 21 -18 30 -32 15z"/>
<path d="M5170 6275 c0 -5 5 -17 10 -25 5 -8 10 -10 10 -5 0 6 -5 17 -10 25
-5 8 -10 11 -10 5z"/>
<path d="M2878 6263 c18 -2 45 -2 60 0 15 2 0 4 -33 4 -33 0 -45 -2 -27 -4z"/>
<path d="M3581 6263 c-1 -6 -4 -20 -7 -30 -5 -17 -5 -17 6 0 6 10 9 23 6 30
-3 9 -5 9 -5 0z"/>
<path d="M4256 6257 c3 -10 9 -15 12 -12 3 3 0 11 -7 18 -10 9 -11 8 -5 -6z"/>
<path d="M4580 6265 c0 -5 5 -17 10 -25 5 -8 10 -10 10 -5 0 6 -5 17 -10 25
-5 8 -10 11 -10 5z"/>
<path d="M5570 6263 c0 -7 5 -15 10 -18 6 -4 8 -16 5 -28 -4 -15 -3 -18 3 -9
7 10 20 -3 51 -52 23 -36 44 -66 47 -66 4 0 -2 12 -12 28 -67 103 -104 155
-104 145z"/>
<path d="M2775 6231 c-27 -16 -68 -48 -90 -72 l-40 -43 54 48 c30 26 75 58
100 71 26 13 42 24 36 24 -5 1 -32 -12 -60 -28z"/>
<path d="M2990 6256 c0 -2 7 -7 16 -10 8 -3 12 -2 9 4 -6 10 -25 14 -25 6z"/>
<path d="M3470 6251 c0 -6 4 -13 10 -16 6 -3 7 1 4 9 -7 18 -14 21 -14 7z"/>
<path d="M4480 6255 c1 -6 7 -21 16 -35 l15 -25 -7 25 c-7 26 -24 52 -24 35z"/>
<path d="M6240 6253 c0 -4 5 -15 10 -23 8 -13 10 -13 10 2 0 9 -4 20 -10 23
-5 3 -10 3 -10 -2z"/>
<path d="M2070 6228 c0 -10 4 -18 10 -18 5 0 14 8 19 18 7 14 6 18 -10 18 -12
0 -19 -7 -19 -18z"/>
<path d="M3066 6200 c21 -22 40 -40 42 -40 9 0 -51 69 -64 74 -9 3 1 -12 22
-34z"/>
<path d="M3781 6224 c0 -11 3 -14 6 -6 3 7 2 16 -1 19 -3 4 -6 -2 -5 -13z"/>
<path d="M4680 6210 l-45 -30 -17 21 c-21 25 -24 12 -4 -14 13 -17 16 -17 43
-3 30 16 81 55 73 56 -3 0 -25 -14 -50 -30z"/>
<path d="M3250 6225 c0 -5 5 -17 10 -25 5 -8 10 -10 10 -5 0 6 -5 17 -10 25
-5 8 -10 11 -10 5z"/>
<path d="M5411 6220 c0 -8 4 -24 9 -35 5 -13 9 -14 9 -5 0 8 -4 24 -9 35 -5
13 -9 14 -9 5z"/>
<path d="M6050 6225 c0 -5 5 -17 10 -25 5 -8 10 -10 10 -5 0 6 -5 17 -10 25
-5 8 -10 11 -10 5z"/>
<path d="M2197 6213 c-4 -3 -7 -11 -7 -17 0 -6 5 -5 12 2 6 6 9 14 7 17 -3 3
-9 2 -12 -2z"/>
<path d="M3490 6211 c0 -6 4 -13 10 -16 6 -3 7 1 4 9 -7 18 -14 21 -14 7z"/>
<path d="M3544 6194 c-18 -14 -18 -15 4 -4 12 6 22 13 22 15 0 8 -5 6 -26 -11z"/>
<path d="M6260 6201 c0 -6 4 -13 10 -16 6 -3 7 1 4 9 -7 18 -14 21 -14 7z"/>
<path d="M3766 6183 c-6 -14 -5 -15 5 -6 7 7 10 15 7 18 -3 3 -9 -2 -12 -12z"/>
<path d="M5206 6187 c3 -10 9 -15 12 -12 3 3 0 11 -7 18 -10 9 -11 8 -5 -6z"/>
<path d="M2136 6175 c-3 -9 -2 -14 3 -10 5 3 11 -1 14 -7 2 -7 7 -11 10 -8 3
3 0 13 -8 23 -11 16 -13 16 -19 2z"/>
<path d="M4526 6153 c15 -35 15 -36 -13 -60 -15 -13 -58 -44 -95 -69 -38 -25
-68 -48 -68 -50 0 -6 8 -1 80 48 30 20 70 50 88 66 l34 28 -16 37 c-8 20 -17
37 -20 37 -3 0 2 -16 10 -37z"/>
<path d="M4062 6139 c6 -16 12 -28 14 -26 5 5 -13 57 -20 57 -3 0 0 -14 6 -31z"/>
<path d="M6281 6167 c-1 -4 6 -24 14 -44 8 -19 15 -39 15 -43 0 -10 -107 -83
-135 -92 -16 -5 -17 -6 -3 -7 19 -1 138 77 145 94 2 6 -5 31 -16 56 -11 24
-20 40 -20 36z"/>
<path d="M3825 6086 c44 -42 84 -76 88 -76 5 0 -11 16 -35 36 -23 20 -52 46
-64 58 -11 11 -31 29 -45 40 -13 10 12 -16 56 -58z"/>
<path d="M5021 6155 c0 -5 8 -26 19 -45 11 -19 19 -30 19 -25 0 6 -8 26 -19
45 -11 19 -19 31 -19 25z"/>
<path d="M5221 6155 c0 -5 6 -21 14 -35 8 -14 14 -20 14 -15 0 6 -6 21 -14 35
-8 14 -14 21 -14 15z"/>
<path d="M5426 6145 c4 -8 8 -15 10 -15 2 0 4 7 4 15 0 8 -4 15 -10 15 -5 0
-7 -7 -4 -15z"/>
<path d="M5878 6108 c77 -109 114 -158 118 -158 3 0 -9 19 -26 43 -17 23 -50
70 -73 104 -23 35 -45 63 -49 63 -4 0 9 -24 30 -52z"/>
<path d="M6080 6151 c0 -6 4 -13 10 -16 6 -3 7 1 4 9 -7 18 -14 21 -14 7z"/>
<path d="M4781 6125 c-19 -14 -40 -26 -45 -28 -6 -3 -9 -7 -6 -9 3 -3 27 10
55 28 27 19 45 34 40 34 -6 -1 -26 -12 -44 -25z"/>
<path d="M4955 6037 c60 -62 112 -111 114 -109 6 3 -211 222 -219 222 -3 0 44
-51 105 -113z"/>
<path d="M3291 6135 c0 -5 18 -44 39 -85 21 -41 39 -70 39 -65 0 6 -18 44 -39
85 -21 41 -39 71 -39 65z"/>
<path d="M5630 6121 c0 -6 4 -13 10 -16 6 -3 7 1 4 9 -7 18 -14 21 -14 7z"/>
<path d="M6100 6118 c0 -11 50 -118 55 -118 2 0 -7 26 -20 57 -24 54 -35 73
-35 61z"/>
<path d="M5611 6100 c0 -8 4 -24 9 -35 l9 -20 0 20 c0 11 -4 27 -9 35 -9 13
-10 13 -9 0z"/>
<path d="M4700 6070 c-8 -5 -12 -12 -9 -15 4 -3 12 1 19 10 14 17 11 19 -10 5z"/>
<path d="M5699 6063 c12 -23 11 -23 -37 -49 -15 -7 -20 -14 -12 -14 8 0 28 10
43 23 26 21 27 23 12 42 -16 20 -16 20 -6 -2z"/>
<path d="M2616 6055 c-9 -26 -7 -32 5 -12 6 10 9 21 6 23 -2 3 -7 -2 -11 -11z"/>
<path d="M4091 6065 c0 -5 13 -35 29 -65 16 -30 29 -50 29 -45 0 6 -13 35 -29
65 -16 30 -29 51 -29 45z"/>
<path d="M5260 6065 c0 -5 5 -17 10 -25 5 -8 10 -10 10 -5 0 6 -5 17 -10 25
-5 8 -10 11 -10 5z"/>
<path d="M5451 6050 c0 -8 4 -24 9 -35 5 -13 9 -14 9 -5 0 8 -4 24 -9 35 -5
13 -9 14 -9 5z"/>
<path d="M3170 6050 c0 -3 20 -43 45 -90 24 -47 45 -82 45 -77 0 4 -16 38 -35
75 -34 68 -55 101 -55 92z"/>
<path d="M5070 6046 c0 -11 40 -86 45 -86 3 0 -4 19 -16 43 -23 45 -29 54 -29
43z"/>
<path d="M2832 6017 c-22 -23 -30 -81 -14 -91 4 -2 6 11 4 29 -3 26 2 40 22
59 14 14 22 26 17 26 -4 0 -17 -10 -29 -23z"/>
<path d="M2920 6014 c42 -49 44 -50 24 -15 -11 19 -26 36 -34 39 -9 3 -5 -7
10 -24z"/>
<path d="M1662 6018 c-18 -18 -14 -38 8 -38 11 0 20 4 20 10 0 5 -7 7 -15 4
-11 -5 -13 -2 -9 10 3 9 10 13 15 10 5 -3 9 0 9 5 0 14 -13 14 -28 -1z"/>
<path d="M1792 6000 c0 -14 2 -19 5 -12 2 6 2 18 0 25 -3 6 -5 1 -5 -13z"/>
<path d="M5292 5989 c6 -16 12 -28 14 -26 5 5 -13 57 -20 57 -3 0 0 -14 6 -31z"/>
<path d="M2603 5935 c0 -38 2 -53 4 -32 2 20 2 52 0 70 -2 17 -4 1 -4 -38z"/>
<path d="M3590 5989 c0 -5 4 -8 9 -5 5 3 20 -3 32 -14 14 -11 18 -19 11 -20
-7 0 -10 -5 -6 -11 4 -8 9 -8 13 -1 4 7 25 -6 52 -31 93 -86 109 -101 109 -95
0 9 -200 188 -210 188 -6 0 -10 -5 -10 -11z"/>
<path d="M4010 5919 c50 -44 90 -84 90 -88 0 -4 -29 -31 -65 -60 -36 -29 -65
-55 -65 -59 0 -3 8 2 18 10 9 8 41 34 70 58 28 24 52 47 52 53 0 8 -29 36
-136 131 -23 20 -44 36 -48 36 -3 0 35 -36 84 -81z"/>
<path d="M2410 5959 l-25 -21 29 17 c23 14 30 15 37 4 5 -8 9 -18 9 -23 0 -5
3 -7 6 -4 7 7 -14 48 -24 48 -4 0 -18 -10 -32 -21z"/>
<path d="M1665 5960 c-4 -6 -11 -8 -16 -5 -5 3 -6 -1 -3 -9 8 -21 11 -20 24 4
11 20 6 29 -5 10z"/>
<path d="M4305 5944 l-30 -26 33 22 c17 12 32 23 32 26 0 7 -4 5 -35 -22z"/>
<path d="M4522 5950 c-18 -11 -32 -22 -32 -25 0 -2 14 4 32 15 30 18 32 18 44
2 8 -9 14 -12 14 -6 0 27 -26 33 -58 14z"/>
<path d="M3610 5940 c6 -11 12 -20 14 -20 2 0 2 9 -1 20 -3 11 -9 20 -15 20
-5 0 -4 -9 2 -20z"/>
<path d="M5322 5923 c17 -41 30 -53 17 -15 -6 18 -15 35 -20 38 -5 3 -4 -7 3
-23z"/>
<path d="M1950 5930 c0 -5 5 -10 10 -10 6 0 10 5 10 10 0 6 -4 10 -10 10 -5 0
-10 -4 -10 -10z"/>
<path d="M2359 5923 c-13 -16 -12 -17 4 -4 9 7 17 15 17 17 0 8 -8 3 -21 -13z"/>
<path d="M4731 5935 c0 -5 6 -21 14 -35 8 -14 14 -20 14 -15 0 6 -6 21 -14 35
-8 14 -14 21 -14 15z"/>
<path d="M5482 5920 c0 -14 2 -19 5 -12 2 6 2 18 0 25 -3 6 -5 1 -5 -13z"/>
<path d="M6016 5917 c16 -26 16 -29 -2 -49 -19 -21 -19 -21 4 -7 27 17 28 30
1 60 l-20 24 17 -28z"/>
<path d="M2980 5916 c0 -10 60 -126 65 -126 3 0 -9 28 -26 63 -33 65 -39 75
-39 63z"/>
<path d="M3390 5911 c0 -6 4 -13 10 -16 6 -3 7 1 4 9 -7 18 -14 21 -14 7z"/>
<path d="M4237 5900 c-31 -25 -53 -25 -66 -2 -6 9 -11 12 -11 7 0 -16 22 -35
40 -35 8 1 29 12 45 25 36 30 29 34 -8 5z"/>
<path d="M4440 5889 l-35 -30 38 26 c33 24 43 35 34 35 -1 0 -18 -14 -37 -31z"/>
<path d="M4595 5883 c15 -36 25 -52 25 -41 0 11 -30 78 -35 78 -3 0 2 -17 10
-37z"/>
<path d="M2292 5876 c-20 -19 -35 -36 -32 -38 3 -2 22 14 43 35 48 46 40 49
-11 3z"/>
<path d="M5105 5880 c17 -19 31 -37 33 -39 1 -2 4 -2 7 1 3 2 -12 20 -33 39
l-37 34 30 -35z"/>
<path d="M5140 5906 c0 -10 51 -96 57 -96 3 0 -7 21 -23 48 -31 54 -34 58 -34
48z"/>
<path d="M3640 5885 c0 -5 5 -17 10 -25 5 -8 10 -10 10 -5 0 6 -5 17 -10 25
-5 8 -10 11 -10 5z"/>
<path d="M5492 5870 c0 -14 2 -19 5 -12 2 6 2 18 0 25 -3 6 -5 1 -5 -13z"/>
<path d="M5746 5858 c-46 -30 -48 -33 -43 -67 3 -20 8 -56 12 -81 l5 -45 -75
-47 c-67 -42 -76 -45 -84 -30 -10 16 -10 16 -11 0 0 -9 5 -18 12 -20 19 -7
168 92 168 112 0 9 -5 42 -11 73 -13 65 -7 78 55 111 35 19 36 19 57 0 22 -19
22 -19 8 4 -18 29 -34 27 -93 -10z"/>
<path d="M3417 5850 c3 -11 9 -22 13 -25 5 -3 6 4 3 15 -3 11 -9 22 -13 25 -5
3 -6 -4 -3 -15z"/>
<path d="M4760 5865 c0 -5 5 -17 10 -25 5 -8 10 -10 10 -5 0 6 -5 17 -10 25
-5 8 -10 11 -10 5z"/>
<path d="M1385 5850 c3 -5 8 -10 11 -10 2 0 4 5 4 10 0 6 -5 10 -11 10 -5 0
-7 -4 -4 -10z"/>
<path d="M2480 5860 c1 -3 8 -27 16 -55 l14 -50 -5 45 c-3 25 -10 49 -16 55
-5 5 -9 7 -9 5z"/>
<path d="M2611 5844 c0 -11 3 -14 6 -6 3 7 2 16 -1 19 -3 4 -6 -2 -5 -13z"/>
<path d="M5941 5818 l-44 -32 -23 28 c-13 15 -24 23 -24 18 0 -5 11 -19 24
-31 l25 -23 45 33 c41 29 52 39 43 39 -2 0 -23 -14 -46 -32z"/>
<path d="M3660 5831 c0 -6 4 -13 10 -16 6 -3 7 1 4 9 -7 18 -14 21 -14 7z"/>
<path d="M5360 5831 c0 -5 5 -13 10 -16 6 -3 10 -2 10 4 0 5 -4 13 -10 16 -5
3 -10 2 -10 -4z"/>
<path d="M5502 5830 c0 -8 4 -26 8 -40 6 -20 8 -21 8 -5 0 11 -3 29 -8 40 -5
12 -8 14 -8 5z"/>
<path d="M2856 5810 c3 -14 11 -32 16 -40 6 -10 7 -7 2 10 -3 14 -11 32 -16
40 -6 10 -7 7 -2 -10z"/>
<path d="M4411 5828 c-1 -12 31 -89 35 -85 3 2 -4 24 -15 48 -11 24 -20 41
-20 37z"/>
<path d="M5197 5776 c26 -30 49 -53 51 -52 7 7 -41 76 -49 71 -4 -3 -14 3 -21
15 -7 11 -17 20 -21 20 -5 0 13 -24 40 -54z"/>
<path d="M2620 5804 c0 -10 5 -26 10 -34 8 -11 9 -7 4 15 -8 37 -14 45 -14 19z"/>
<path d="M3282 5815 c18 -54 52 -135 55 -132 5 5 -33 107 -48 127 -6 8 -9 11
-7 5z"/>
<path d="M4780 5811 c0 -5 5 -13 10 -16 6 -3 10 -2 10 4 0 5 -4 13 -10 16 -5
3 -10 2 -10 -4z"/>
<path d="M3451 5790 c14 -31 19 -36 19 -24 0 6 -7 19 -16 30 -14 18 -14 18 -3
-6z"/>
<path d="M3820 5804 c1 -12 100 -91 126 -100 10 -4 1 5 -21 21 -22 15 -55 41
-72 58 -18 17 -33 27 -33 21z"/>
<path d="M4972 5790 c7 -11 17 -20 22 -20 5 0 1 9 -9 20 -10 11 -20 20 -22 20
-2 0 2 -9 9 -20z"/>
<path d="M3689 5778 c14 -38 51 -108 56 -108 5 0 -50 119 -60 128 -3 4 -2 -6
4 -20z"/>
<path d="M2282 5760 c0 -14 2 -19 5 -12 2 6 2 18 0 25 -3 6 -5 1 -5 -13z"/>
<path d="M3051 5778 c-1 -12 31 -89 35 -85 3 2 -4 24 -15 48 -11 24 -20 41
-20 37z"/>
<path d="M4242 5758 c-18 -11 -32 -22 -32 -25 0 -2 15 5 33 16 26 16 36 18 45
9 8 -8 12 -9 12 -1 0 21 -27 21 -58 1z"/>
<path d="M4651 5760 c14 -31 19 -36 19 -24 0 6 -7 19 -16 30 -14 18 -14 18 -3
-6z"/>
<path d="M5391 5778 c-1 -12 31 -89 35 -85 3 2 -4 24 -15 48 -11 24 -20 41
-20 37z"/>
<path d="M1476 5761 c-4 -7 -5 -15 -2 -18 9 -9 19 4 14 18 -4 11 -6 11 -12 0z"/>
<path d="M4811 5749 c-1 -8 6 -24 15 -35 15 -19 15 -19 6 1 -5 11 -12 27 -15
35 -5 13 -6 13 -6 -1z"/>
<path d="M2892 5719 c6 -16 12 -28 14 -26 5 5 -13 57 -20 57 -3 0 0 -14 6 -31z"/>
<path d="M3470 5746 c0 -11 40 -86 45 -86 3 0 -4 19 -16 43 -23 45 -29 54 -29
43z"/>
<path d="M5026 5736 c5 -14 4 -17 -5 -11 -11 6 -11 3 -1 -16 18 -34 24 -38 16
-11 -4 12 -3 22 2 22 5 0 17 -10 25 -22 9 -13 16 -18 16 -12 1 5 -13 23 -30
40 -22 21 -28 24 -23 10z"/>
<path d="M1537 5717 c-11 -29 -9 -43 4 -30 6 6 9 19 7 29 -3 18 -4 18 -11 1z"/>
<path d="M2291 5720 c0 -8 4 -22 9 -30 12 -18 12 -2 0 25 -6 13 -9 15 -9 5z"/>
<path d="M4168 5709 c-23 -17 -28 -28 -26 -57 l1 -37 4 35 c3 22 14 43 31 57
34 28 26 29 -10 2z"/>
<path d="M2522 5705 c0 -11 3 -29 8 -40 11 -25 11 1 0 35 -6 20 -8 21 -8 5z"/>
<path d="M2650 5715 c0 -5 5 -17 10 -25 5 -8 10 -10 10 -5 0 6 -5 17 -10 25
-5 8 -10 11 -10 5z"/>
<path d="M4310 5715 c1 -6 10 -26 21 -45 15 -26 18 -29 13 -10 -7 27 -34 71
-34 55z"/>
<path d="M4682 5689 c6 -16 12 -28 14 -26 5 5 -13 57 -20 57 -3 0 0 -14 6 -31z"/>
<path d="M4460 5704 c0 -5 7 -18 15 -28 8 -11 15 -16 15 -10 0 5 -7 18 -15 28
-8 11 -15 16 -15 10z"/>
<path d="M5532 5680 c0 -14 2 -19 5 -12 2 6 2 18 0 25 -3 6 -5 1 -5 -13z"/>
<path d="M2052 5650 c-23 -17 -42 -38 -41 -48 0 -14 2 -13 9 4 5 12 24 31 44
44 32 19 43 30 33 30 -2 0 -23 -14 -45 -30z"/>
<path d="M2911 5675 c0 -5 8 -26 19 -45 11 -19 19 -30 19 -25 0 6 -8 26 -19
45 -11 19 -19 31 -19 25z"/>
<path d="M2180 5625 c17 -25 33 -45 36 -45 3 0 -9 20 -26 45 -17 25 -33 45
-36 45 -3 0 9 -20 26 -45z"/>
<path d="M2674 5660 c9 -32 39 -101 43 -97 2 3 -8 29 -22 58 -14 30 -23 47
-21 39z"/>
<path d="M4851 5659 c-1 -8 6 -24 15 -35 15 -19 15 -19 6 1 -5 11 -12 27 -15
35 -5 13 -6 13 -6 -1z"/>
<path d="M5057 5635 c9 -19 18 -33 21 -31 4 5 -26 66 -33 66 -3 0 3 -16 12
-35z"/>
<path d="M5110 5645 c14 -16 26 -32 28 -34 1 -2 4 -2 7 1 3 2 -10 18 -28 34
l-32 29 25 -30z"/>
<path d="M3106 5647 c3 -10 9 -15 12 -12 3 3 0 11 -7 18 -10 9 -11 8 -5 -6z"/>
<path d="M3520 5645 c0 -5 5 -17 10 -25 5 -8 10 -10 10 -5 0 6 -5 17 -10 25
-5 8 -10 11 -10 5z"/>
<path d="M5446 5637 c3 -10 9 -15 12 -12 3 3 0 11 -7 18 -10 9 -11 8 -5 -6z"/>
<path d="M5541 5634 c0 -11 3 -14 6 -6 3 7 2 16 -1 19 -3 4 -6 -2 -5 -13z"/>
<path d="M2542 5620 c0 -14 2 -19 5 -12 2 6 2 18 0 25 -3 6 -5 1 -5 -13z"/>
<path d="M3770 5618 c8 -25 6 -30 -35 -59 -25 -18 -45 -34 -45 -36 0 -7 60 31
81 50 23 21 23 27 4 53 -14 18 -15 17 -5 -8z"/>
<path d="M4500 5614 c0 -6 7 -19 16 -30 14 -18 14 -18 3 6 -14 31 -19 36 -19
24z"/>
<path d="M5460 5609 c0 -4 7 -22 15 -40 8 -19 14 -27 14 -19 0 14 -28 72 -29
59z"/>
<path d="M4880 5595 c0 -5 5 -17 10 -25 5 -8 10 -10 10 -5 0 6 -5 17 -10 25
-5 8 -10 11 -10 5z"/>
<path d="M5160 5595 c0 -11 152 -165 174 -177 14 -8 22 -6 35 8 15 17 15 17
-1 5 -24 -18 -43 -5 -132 89 -42 45 -76 78 -76 75z"/>
<path d="M2551 5574 c0 -11 3 -14 6 -6 3 7 2 16 -1 19 -3 4 -6 -2 -5 -13z"/>
<path d="M2950 5584 c0 -6 7 -19 16 -30 14 -18 14 -18 3 6 -14 31 -19 36 -19
24z"/>
<path d="M3130 5585 c0 -5 5 -17 10 -25 5 -8 10 -10 10 -5 0 6 -5 17 -10 25
-5 8 -10 11 -10 5z"/>
<path d="M4370 5585 c0 -5 5 -17 10 -25 5 -8 10 -10 10 -5 0 6 -5 17 -10 25
-5 8 -10 11 -10 5z"/>
<path d="M4734 5580 c9 -32 39 -101 43 -97 2 3 -8 29 -22 58 -14 30 -23 47
-21 39z"/>
<path d="M5097 5555 c9 -19 18 -33 21 -31 4 5 -26 66 -33 66 -3 0 3 -16 12
-35z"/>
<path d="M2021 5564 c0 -11 3 -14 6 -6 3 7 2 16 -1 19 -3 4 -6 -2 -5 -13z"/>
<path d="M3371 5570 c0 -8 4 -24 9 -35 5 -13 9 -14 9 -5 0 8 -4 24 -9 35 -5
13 -9 14 -9 5z"/>
<path d="M4152 5555 c0 -16 2 -22 5 -12 2 9 2 23 0 30 -3 6 -5 -1 -5 -18z"/>
<path d="M2340 5555 c0 -5 5 -17 10 -25 5 -8 10 -10 10 -5 0 6 -5 17 -10 25
-5 8 -10 11 -10 5z"/>
<path d="M3560 5551 c0 -6 4 -13 10 -16 6 -3 7 1 4 9 -7 18 -14 21 -14 7z"/>
<path d="M1756 5515 c-75 -52 -80 -63 -6 -15 77 51 76 50 64 49 -5 0 -31 -15
-58 -34z"/>
<path d="M1861 5520 c29 -45 29 -45 29 -34 0 5 -12 23 -26 39 l-26 30 23 -35z"/>
<path d="M4900 5545 c0 -5 5 -17 10 -25 5 -8 10 -10 10 -5 0 6 -5 17 -10 25
-5 8 -10 11 -10 5z"/>
<path d="M2032 5525 c0 -11 3 -29 8 -40 11 -25 11 1 0 35 -6 20 -8 21 -8 5z"/>
<path d="M2286 5470 c26 -38 49 -70 51 -70 5 0 -2 12 -49 83 -21 31 -41 57
-43 57 -3 0 16 -31 41 -70z"/>
<path d="M2561 5533 c0 -4 4 -17 9 -28 8 -19 9 -19 9 2 1 12 -3 25 -9 28 -5 3
-10 3 -9 -2z"/>
<path d="M4540 5528 c0 -9 5 -20 10 -23 13 -8 13 5 0 25 -8 13 -10 13 -10 -2z"/>
<path d="M2991 5510 c14 -31 19 -36 19 -24 0 6 -7 19 -16 30 -14 18 -14 18 -3
-6z"/>
<path d="M3161 5515 c1 -19 18 -51 18 -35 0 8 -4 22 -9 30 -5 8 -9 11 -9 5z"/>
<path d="M5460 5497 c-14 -12 -37 -30 -50 -40 -24 -17 -24 -17 8 0 18 10 43
28 54 41 27 28 21 28 -12 -1z"/>
<path d="M2740 5506 c0 -11 50 -106 55 -106 3 0 -7 24 -21 53 -28 55 -34 65
-34 53z"/>
<path d="M4412 5479 c6 -16 12 -28 14 -26 5 5 -13 57 -20 57 -3 0 0 -14 6 -31z"/>
<path d="M5121 5505 c0 -5 6 -21 14 -35 8 -14 14 -20 14 -15 0 6 -6 21 -14 35
-8 14 -14 21 -14 15z"/>
<path d="M2361 5484 c0 -11 3 -14 6 -6 3 7 2 16 -1 19 -3 4 -6 -2 -5 -13z"/>
<path d="M3630 5490 c-9 -6 -10 -10 -3 -10 6 0 15 5 18 10 8 12 4 12 -15 0z"/>
<path d="M3807 5465 c-20 -14 -37 -28 -37 -31 0 -6 15 2 52 29 15 12 35 17 47
14 12 -3 19 -1 15 4 -9 16 -38 10 -77 -16z"/>
<path d="M4162 5470 c0 -14 2 -19 5 -12 2 6 2 18 0 25 -3 6 -5 1 -5 -13z"/>
<path d="M2582 5460 c0 -14 4 -38 8 -55 7 -27 8 -27 8 -5 0 14 -4 39 -8 55 -7
27 -8 27 -8 5z"/>
<path d="M4930 5471 c0 -6 4 -13 10 -16 6 -3 7 1 4 9 -7 18 -14 21 -14 7z"/>
<path d="M1667 5453 c-11 -11 -8 -28 9 -49 14 -18 15 -18 4 4 -6 13 -9 30 -6
38 6 15 3 18 -7 7z"/>
<path d="M2051 5444 c0 -11 3 -14 6 -6 3 7 2 16 -1 19 -3 4 -6 -2 -5 -13z"/>
<path d="M2376 5430 c4 -19 10 -42 15 -50 11 -18 1 34 -13 65 -5 13 -6 9 -2
-15z"/>
<path d="M3935 5410 c54 -55 76 -69 29 -18 -56 61 -64 68 -71 68 -4 0 15 -22
42 -50z"/>
<path d="M1920 5422 c6 -13 14 -21 18 -18 3 4 -2 14 -12 24 -18 16 -18 16 -6
-6z"/>
<path d="M4436 5427 c3 -10 9 -15 12 -12 3 3 0 11 -7 18 -10 9 -11 8 -5 -6z"/>
<path d="M4952 5420 c7 -10 14 -18 15 -16 6 6 -9 36 -18 36 -5 0 -4 -9 3 -20z"/>
<path d="M5156 5427 c3 -10 9 -15 12 -12 3 3 0 11 -7 18 -10 9 -11 8 -5 -6z"/>
<path d="M3030 5427 c0 -2 15 -16 33 -33 l32 -29 -29 33 c-28 30 -36 37 -36
29z"/>
<path d="M3110 5421 c0 -6 4 -13 10 -16 6 -3 7 1 4 9 -7 18 -14 21 -14 7z"/>
<path d="M3162 5409 c-7 -11 -23 -24 -35 -29 -14 -6 -16 -9 -6 -9 16 -1 66 45
58 54 -3 2 -10 -5 -17 -16z"/>
<path d="M3391 5414 c0 -11 3 -14 6 -6 3 7 2 16 -1 19 -3 4 -6 -2 -5 -13z"/>
<path d="M3730 5410 c-17 -17 -19 -50 -3 -50 3 0 3 7 -1 15 -3 8 4 24 16 35
12 11 19 20 15 20 -4 0 -16 -9 -27 -20z"/>
<path d="M4601 5400 c14 -31 19 -36 19 -24 0 6 -7 19 -16 30 -14 18 -14 18 -3
-6z"/>
<path d="M4812 5393 c13 -30 38 -71 38 -62 0 9 -40 89 -45 89 -3 0 1 -12 7
-27z"/>
<path d="M4173 5360 c0 -25 2 -35 4 -22 2 12 2 32 0 45 -2 12 -4 2 -4 -23z"/>
<path d="M4451 5395 c0 -5 6 -21 14 -35 8 -14 14 -20 14 -15 0 6 -6 21 -14 35
-8 14 -14 21 -14 15z"/>
<path d="M5176 5387 c3 -10 9 -15 12 -12 3 3 0 11 -7 18 -10 9 -11 8 -5 -6z"/>
<path d="M1965 5345 c16 -27 35 -57 42 -65 8 -8 0 10 -17 40 -18 30 -37 60
-42 65 -6 6 2 -12 17 -40z"/>
<path d="M2346 5375 c4 -8 11 -15 16 -15 6 0 5 6 -2 15 -7 8 -14 15 -16 15 -2
0 -1 -7 2 -15z"/>
<path d="M3381 5374 c0 -11 3 -14 6 -6 3 7 2 16 -1 19 -3 4 -6 -2 -5 -13z"/>
<path d="M4987 5350 c9 -22 18 -38 20 -36 5 5 -24 76 -31 76 -2 0 3 -18 11
-40z"/>
<path d="M2820 5340 c6 -11 13 -20 16 -20 2 0 0 9 -6 20 -6 11 -13 20 -16 20
-2 0 0 -9 6 -20z"/>
<path d="M4626 5347 c3 -10 9 -15 12 -12 3 3 0 11 -7 18 -10 9 -11 8 -5 -6z"/>
<path d="M2370 5349 c0 -3 11 -20 25 -39 22 -30 25 -31 25 -12 0 12 -4 21 -9
20 -5 -2 -17 6 -25 17 -8 11 -16 17 -16 14z"/>
<path d="M2611 5334 c0 -11 3 -14 6 -6 3 7 2 16 -1 19 -3 4 -6 -2 -5 -13z"/>
<path d="M3730 5344 c0 -6 7 -19 16 -30 14 -18 14 -18 3 6 -14 31 -19 36 -19
24z"/>
<path d="M4078 5253 c44 -49 90 -97 103 -108 13 -11 4 3 -20 30 -71 81 -152
165 -158 165 -3 0 31 -39 75 -87z"/>
<path d="M4491 5310 c14 -31 19 -36 19 -24 0 6 -7 19 -16 30 -14 18 -14 18 -3
-6z"/>
<path d="M2081 5304 c0 -11 3 -14 6 -6 3 7 2 16 -1 19 -3 4 -6 -2 -5 -13z"/>
<path d="M3309 5259 c-30 -32 -52 -59 -48 -59 7 0 109 106 109 114 0 9 -2 8
-61 -55z"/>
<path d="M4641 5315 c0 -5 6 -21 14 -35 8 -14 14 -20 14 -15 0 6 -6 21 -14 35
-8 14 -14 21 -14 15z"/>
<path d="M4850 5315 c0 -5 5 -17 10 -25 5 -8 10 -10 10 -5 0 6 -5 17 -10 25
-5 8 -10 11 -10 5z"/>
<path d="M2621 5294 c0 -11 3 -14 6 -6 3 7 2 16 -1 19 -3 4 -6 -2 -5 -13z"/>
<path d="M2852 5285 c6 -14 15 -25 20 -25 5 0 1 11 -8 25 -9 14 -18 25 -20 25
-2 0 2 -11 8 -25z"/>
<path d="M5163 5289 c-33 -21 -40 -29 -25 -29 8 1 70 50 62 50 -3 0 -20 -10
-37 -21z"/>
<path d="M5010 5294 c0 -6 7 -19 16 -30 14 -18 14 -18 3 6 -14 31 -19 36 -19
24z"/>
<path d="M2087 5260 c3 -11 7 -20 9 -20 2 0 4 9 4 20 0 11 -4 20 -9 20 -5 0
-7 -9 -4 -20z"/>
<path d="M3777 5245 c9 -19 18 -33 21 -31 4 5 -26 66 -33 66 -3 0 3 -16 12
-35z"/>
<path d="M4182 5260 c0 -14 2 -19 5 -12 2 6 2 18 0 25 -3 6 -5 1 -5 -13z"/>
<path d="M4310 5271 c0 -6 4 -13 10 -16 6 -3 7 1 4 9 -7 18 -14 21 -14 7z"/>
<path d="M4516 5257 c3 -10 9 -15 12 -12 3 3 0 11 -7 18 -10 9 -11 8 -5 -6z"/>
<path d="M2040 5220 c11 -22 23 -40 25 -40 3 0 -4 18 -15 40 -11 22 -23 40
-25 40 -3 0 4 -18 15 -40z"/>
<path d="M2631 5244 c0 -11 3 -14 6 -6 3 7 2 16 -1 19 -3 4 -6 -2 -5 -13z"/>
<path d="M2900 5225 c13 -14 26 -25 28 -25 3 0 -5 11 -18 25 -13 14 -26 25
-28 25 -3 0 5 -11 18 -25z"/>
<path d="M5087 5239 c-10 -6 -25 -8 -33 -5 -9 3 -12 1 -9 -4 9 -14 28 -12 51
5 22 17 17 19 -9 4z"/>
<path d="M3452 5232 c-7 -5 16 -7 50 -4 85 5 96 10 23 11 -33 0 -66 -3 -73 -7z"/>
<path d="M2101 5209 c0 -13 4 -33 9 -44 7 -14 8 -8 3 20 -7 46 -13 59 -12 24z"/>
<path d="M3590 5226 c0 -3 9 -10 20 -16 11 -6 20 -8 20 -6 0 3 -9 10 -20 16
-11 6 -20 8 -20 6z"/>
<path d="M4537 5209 c4 -13 8 -18 11 -10 2 7 -1 18 -6 23 -8 8 -9 4 -5 -13z"/>
<path d="M3369 5184 c-26 -19 -55 -47 -64 -62 -12 -19 -3 -14 31 19 27 25 60
53 74 63 13 9 20 16 15 16 -6 0 -31 -16 -56 -36z"/>
<path d="M4192 5190 c0 -14 2 -19 5 -12 2 6 2 18 0 25 -3 6 -5 1 -5 -13z"/>
<path d="M4321 5194 c0 -11 3 -14 6 -6 3 7 2 16 -1 19 -3 4 -6 -2 -5 -13z"/>
<path d="M2271 5183 c0 -11 3 -13 6 -5 2 6 10 9 15 6 7 -4 8 -2 4 4 -11 18
-26 14 -25 -5z"/>
<path d="M2940 5191 c0 -5 7 -12 16 -15 14 -5 15 -4 4 9 -14 17 -20 19 -20 6z"/>
<path d="M3190 5174 c-25 -13 -41 -23 -37 -24 15 0 75 28 81 39 4 6 6 10 4 10
-2 -1 -23 -12 -48 -25z"/>
<path d="M3801 5195 c0 -5 8 -26 19 -45 11 -19 19 -30 19 -25 0 6 -8 26 -19
45 -11 19 -19 31 -19 25z"/>
<path d="M4691 5195 c0 -5 6 -21 14 -35 8 -14 14 -20 14 -15 0 6 -6 21 -14 35
-8 14 -14 21 -14 15z"/>
<path d="M3655 5170 c10 -11 20 -20 22 -20 2 0 -2 9 -9 20 -7 11 -17 20 -22
20 -5 0 -1 -9 9 -20z"/>
<path d="M4355 5168 c4 -13 11 -27 16 -33 5 -5 4 5 -2 23 -12 36 -24 44 -14
10z"/>
<path d="M4914 5178 c3 -10 9 -25 12 -33 4 -10 -14 -27 -60 -56 -36 -23 -66
-43 -66 -45 0 -8 79 40 112 66 31 26 31 26 14 55 -10 17 -15 22 -12 13z"/>
<path d="M2651 5170 c0 -8 4 -24 9 -35 5 -13 9 -14 9 -5 0 8 -4 24 -9 35 -5
13 -9 14 -9 5z"/>
<path d="M2300 5160 c0 -5 5 -10 11 -10 5 0 7 5 4 10 -3 6 -8 10 -11 10 -2 0
-4 -4 -4 -10z"/>
<path d="M3005 5155 c17 -8 44 -14 60 -13 29 0 29 0 -5 7 -19 4 -46 11 -60 14
-20 6 -19 4 5 -8z"/>
<path d="M4332 5140 c0 -14 2 -19 5 -12 2 6 2 18 0 25 -3 6 -5 1 -5 -13z"/>
<path d="M4560 5153 c1 -11 69 -140 70 -132 0 9 -61 139 -66 139 -2 0 -4 -3
-4 -7z"/>
<path d="M2090 5129 c7 -11 14 -19 16 -16 7 7 -7 37 -17 37 -6 0 -5 -9 1 -21z"/>
<path d="M3118 5143 c7 -3 16 -2 19 1 4 3 -2 6 -13 5 -11 0 -14 -3 -6 -6z"/>
<path d="M2340 5105 c25 -45 50 -75 50 -59 0 6 -9 19 -20 29 -11 10 -20 24
-20 30 0 7 -7 19 -16 26 -11 9 -10 1 6 -26z"/>
<path d="M3724 5065 c63 -111 75 -125 26 -30 -23 44 -48 87 -56 95 -8 8 5 -21
30 -65z"/>
<path d="M2116 5113 c-4 -9 -2 -21 4 -27 7 -7 10 -2 10 17 0 31 -5 34 -14 10z"/>
<path d="M2292 5110 c0 -14 2 -19 5 -12 2 6 2 18 0 25 -3 6 -5 1 -5 -13z"/>
<path d="M4380 5115 c0 -5 5 -17 10 -25 5 -8 10 -10 10 -5 0 6 -5 17 -10 25
-5 8 -10 11 -10 5z"/>
<path d="M4342 5090 c0 -14 2 -19 5 -12 2 6 2 18 0 25 -3 6 -5 1 -5 -13z"/>
<path d="M4730 5106 c0 -11 30 -66 36 -66 2 0 -3 15 -12 33 -19 36 -24 44 -24
33z"/>
<path d="M2676 5075 c8 -37 14 -45 14 -19 0 10 -5 26 -10 34 -8 11 -9 7 -4
-15z"/>
<path d="M4044 5073 c9 -18 20 -32 24 -31 7 3 103 -97 140 -146 12 -16 22 -24
22 -18 0 10 -98 122 -172 197 l-30 30 16 -32z"/>
<path d="M3276 5073 c-6 -14 -5 -15 5 -6 7 7 10 15 7 18 -3 3 -9 -2 -12 -12z"/>
<path d="M3850 5086 c0 -12 29 -76 34 -76 3 0 -2 17 -11 38 -16 38 -23 50 -23
38z"/>
<path d="M2302 5060 c0 -14 2 -19 5 -12 2 6 2 18 0 25 -3 6 -5 1 -5 -13z"/>
<path d="M3262 5030 c0 -14 2 -19 5 -12 2 6 2 18 0 25 -3 6 -5 1 -5 -13z"/>
<path d="M3454 5028 l-19 -23 25 20 c14 11 27 21 29 22 2 2 0 3 -6 3 -5 0 -18
-10 -29 -22z"/>
<path d="M4352 5020 c0 -19 2 -27 5 -17 2 9 2 25 0 35 -3 9 -5 1 -5 -18z"/>
<path d="M4428 5005 c58 -147 89 -181 123 -138 13 16 12 17 -3 5 -32 -25 -49
-9 -88 81 -41 95 -64 133 -32 52z"/>
<path d="M3530 5020 c6 -11 13 -20 16 -20 2 0 0 9 -6 20 -6 11 -13 20 -16 20
-2 0 0 -9 6 -20z"/>
<path d="M2416 5002 c10 -19 32 -48 47 -65 20 -23 18 -17 -9 23 -46 67 -64 87
-38 42z"/>
<path d="M2691 5020 c0 -8 4 -24 9 -35 5 -13 9 -14 9 -5 0 8 -4 24 -9 35 -5
13 -9 14 -9 5z"/>
<path d="M2312 5000 c0 -14 2 -19 5 -12 2 6 2 18 0 25 -3 6 -5 1 -5 -13z"/>
<path d="M3432 4980 c0 -14 2 -19 5 -12 2 6 2 18 0 25 -3 6 -5 1 -5 -13z"/>
<path d="M3891 4995 c0 -5 8 -26 19 -45 11 -19 19 -30 19 -25 0 6 -8 26 -19
45 -11 19 -19 31 -19 25z"/>
<path d="M4105 4953 c29 -54 41 -68 26 -33 -19 48 -36 80 -43 80 -4 0 4 -21
17 -47z"/>
<path d="M3551 4985 c0 -5 6 -19 14 -29 8 -11 15 -15 15 -10 0 6 -7 19 -15 30
-8 10 -14 15 -14 9z"/>
<path d="M3231 4964 c0 -11 3 -14 6 -6 3 7 2 16 -1 19 -3 4 -6 -2 -5 -13z"/>
<path d="M4360 4941 c0 -34 -5 -42 -35 -61 -20 -12 -45 -20 -55 -17 -11 3 -20
1 -20 -4 0 -16 40 -9 80 14 37 20 40 26 40 65 0 23 -2 42 -5 42 -3 0 -5 -18
-5 -39z"/>
<path d="M4647 4961 c4 -14 -6 -26 -36 -47 -38 -24 -58 -45 -28 -28 62 35 92
74 68 88 -5 4 -7 -3 -4 -13z"/>
<path d="M2712 4940 c0 -14 2 -19 5 -12 2 6 2 18 0 25 -3 6 -5 1 -5 -13z"/>
<path d="M3791 4945 c0 -5 9 -28 20 -50 10 -22 16 -29 13 -15 -7 28 -33 80
-33 65z"/>
<path d="M3582 4925 c14 -36 58 -125 62 -125 7 0 -34 91 -51 115 -8 11 -13 16
-11 10z"/>
<path d="M2332 4905 c0 -11 3 -29 8 -40 11 -25 11 1 0 35 -6 20 -8 21 -8 5z"/>
<path d="M3262 4900 c0 -14 2 -19 5 -12 2 6 2 18 0 25 -3 6 -5 1 -5 -13z"/>
<path d="M3450 4905 c0 -14 52 -136 57 -132 2 2 -10 35 -26 73 -17 38 -30 65
-31 59z"/>
<path d="M3930 4901 c0 -6 4 -13 10 -16 6 -3 7 1 4 9 -7 18 -14 21 -14 7z"/>
<path d="M2498 4885 c6 -11 23 -31 39 -45 l28 -25 -30 35 c-47 55 -48 56 -37
35z"/>
<path d="M2720 4885 c0 -13 -17 -31 -45 -48 -50 -32 -62 -48 -15 -20 63 37 86
61 73 74 -11 11 -13 9 -13 -6z"/>
<path d="M3950 4866 c0 -11 40 -86 45 -86 3 0 -4 19 -16 43 -23 45 -29 54 -29
43z"/>
<path d="M3040 4850 c8 -5 20 -10 25 -10 6 0 3 5 -5 10 -8 5 -19 10 -25 10 -5
0 -3 -5 5 -10z"/>
<path d="M2900 4840 c-8 -5 -10 -10 -5 -10 6 0 17 5 25 10 8 5 11 10 5 10 -5
0 -17 -5 -25 -10z"/>
<path d="M3100 4820 c14 -11 30 -20 35 -20 6 0 -1 9 -15 20 -14 11 -29 20 -35
20 -5 0 1 -9 15 -20z"/>
<path d="M2351 4825 c0 -5 6 -32 13 -60 8 -27 14 -41 14 -30 0 21 -25 107 -27
90z"/>
<path d="M2849 4809 c-23 -19 -23 -20 -2 -10 12 6 25 16 28 21 10 16 -1 12
-26 -11z"/>
<path d="M4170 4821 c0 -6 4 -13 10 -16 6 -3 7 1 4 9 -7 18 -14 21 -14 7z"/>
<path d="M2577 4788 c2 -5 10 -8 18 -8 8 0 16 3 18 8 3 4 -5 7 -18 7 -13 0
-21 -3 -18 -7z"/>
<path d="M2773 4759 c-24 -17 -43 -32 -43 -35 0 -3 20 9 45 26 25 17 45 33 45
35 0 7 -2 6 -47 -26z"/>
<path d="M3182 4737 c24 -30 48 -62 55 -73 12 -18 12 -18 5 1 -9 26 -84 125
-94 125 -5 0 11 -24 34 -53z"/>
<path d="M3290 4788 c0 -11 53 -134 61 -143 6 -5 -4 24 -21 64 -28 68 -40 92
-40 79z"/>
<path d="M4190 4786 c0 -11 30 -66 36 -66 2 0 -3 15 -12 33 -19 36 -24 44 -24
33z"/>
<path d="M3650 4774 c0 -6 7 -19 16 -30 14 -18 14 -18 3 6 -14 31 -19 36 -19
24z"/>
<path d="M3860 4775 c0 -5 5 -17 10 -25 5 -8 10 -10 10 -5 0 6 -5 17 -10 25
-5 8 -10 11 -10 5z"/>
<path d="M4000 4765 c0 -5 5 -17 10 -25 5 -8 10 -10 10 -5 0 6 -5 17 -10 25
-5 8 -10 11 -10 5z"/>
<path d="M2701 4711 c-7 -5 -12 -14 -10 -20 2 -6 10 -2 17 9 14 22 13 23 -7
11z"/>
<path d="M3686 4700 c3 -14 11 -32 16 -40 6 -10 7 -7 2 10 -3 14 -11 32 -16
40 -6 10 -7 7 -2 -10z"/>
<path d="M3886 4700 c3 -14 11 -32 16 -40 6 -10 7 -7 2 10 -3 14 -11 32 -16
40 -6 10 -7 7 -2 -10z"/>
<path d="M4020 4718 c0 -13 52 -118 61 -124 6 -3 -4 23 -22 58 -32 63 -39 76
-39 66z"/>
<path d="M3536 4697 c3 -10 9 -15 12 -12 3 3 0 11 -7 18 -10 9 -11 8 -5 -6z"/>
<path d="M2390 4662 c0 -6 -27 -30 -60 -52 -77 -52 -78 -60 -1 -12 56 35 78
58 66 70 -3 3 -5 0 -5 -6z"/>
<path d="M2700 4661 c0 -6 4 -13 10 -16 6 -3 7 1 4 9 -7 18 -14 21 -14 7z"/>
<path d="M2942 4661 c-11 -7 -10 -9 3 -14 9 -4 14 -3 10 2 -3 5 1 12 7 14 7 3
9 6 3 6 -5 0 -16 -3 -23 -8z"/>
<path d="M2990 4667 c0 -3 12 -12 26 -22 15 -9 23 -12 20 -6 -7 11 -46 35 -46
28z"/>
<path d="M3551 4665 c0 -5 11 -30 24 -55 13 -25 24 -40 24 -35 0 6 -11 30 -24
55 -13 25 -24 41 -24 35z"/>
<path d="M4209 4639 l-24 -20 28 17 c15 9 27 18 27 20 0 8 -8 4 -31 -17z"/>
<path d="M2911 4640 c0 -8 6 -28 14 -45 17 -39 18 -21 0 25 -7 19 -14 28 -14
20z"/>
<path d="M3260 4620 c6 -11 13 -20 16 -20 2 0 0 9 -6 20 -6 11 -13 20 -16 20
-2 0 0 -9 6 -20z"/>
<path d="M2187 4599 c28 -47 51 -65 66 -50 9 10 8 11 -5 6 -12 -5 -24 5 -44
34 -31 48 -43 55 -17 10z"/>
<path d="M2721 4615 c0 -5 6 -21 14 -35 8 -14 14 -20 14 -15 0 6 -6 21 -14 35
-8 14 -14 21 -14 15z"/>
<path d="M3374 4585 c10 -22 22 -44 27 -50 6 -5 2 9 -9 33 -25 55 -39 69 -18
17z"/>
<path d="M3720 4615 c0 -5 5 -17 10 -25 5 -8 10 -10 10 -5 0 6 -5 17 -10 25
-5 8 -10 11 -10 5z"/>
<path d="M3060 4591 c5 -11 15 -23 21 -27 6 -3 3 5 -6 20 -20 30 -30 35 -15 7z"/>
<path d="M4115 4585 c-16 -8 -23 -14 -14 -15 8 0 24 7 35 15 23 18 18 18 -21
0z"/>
<path d="M3280 4589 c0 -4 16 -40 35 -80 20 -41 33 -63 29 -49 -7 26 -63 139
-64 129z"/>
<path d="M3741 4552 c0 -13 -13 -35 -28 -49 -23 -21 -24 -24 -6 -14 27 14 46
46 40 69 -3 12 -5 10 -6 -6z"/>
<path d="M3610 4552 c0 -7 14 -26 31 -44 l31 -33 -28 40 c-16 22 -29 42 -31
44 -2 2 -3 -1 -3 -7z"/>
<path d="M2756 4530 c3 -14 10 -29 15 -34 14 -16 10 6 -7 34 l-15 25 7 -25z"/>
<path d="M3096 4537 c3 -10 9 -15 12 -12 3 3 0 11 -7 18 -10 9 -11 8 -5 -6z"/>
<path d="M2972 4493 c17 -41 30 -53 17 -15 -6 18 -15 35 -20 38 -5 3 -4 -7 3
-23z"/>
<path d="M3416 4507 c3 -10 9 -15 12 -12 3 3 0 11 -7 18 -10 9 -11 8 -5 -6z"/>
<path d="M3911 4484 c0 -11 3 -14 6 -6 3 7 2 16 -1 19 -3 4 -6 -2 -5 -13z"/>
<path d="M3131 4465 c0 -5 6 -21 14 -35 8 -14 14 -20 14 -15 0 6 -6 21 -14 35
-8 14 -14 21 -14 15z"/>
<path d="M3455 4430 c8 -16 29 -45 45 -63 16 -19 26 -38 22 -42 -4 -5 -2 -5 5
-1 6 3 27 -3 45 -14 18 -11 42 -20 53 -20 12 1 5 6 -18 14 -54 20 -103 60
-133 111 -29 51 -43 61 -19 15z"/>
<path d="M3900 4451 c0 -6 -21 -35 -47 -63 -31 -34 -37 -44 -18 -29 36 27 81
89 72 98 -4 3 -7 1 -7 -6z"/>
<path d="M2824 4390 c9 -32 39 -101 43 -97 2 3 -8 29 -22 58 -14 30 -23 47
-21 39z"/>
<path d="M3171 4370 c0 -8 4 -22 9 -30 12 -18 12 -2 0 25 -6 13 -9 15 -9 5z"/>
<path d="M3072 4279 c6 -16 12 -28 14 -26 5 5 -13 57 -20 57 -3 0 0 -14 6 -31z"/>
<path d="M3710 4300 c-18 -12 -2 -12 25 0 13 6 15 9 5 9 -8 0 -22 -4 -30 -9z"/>
<path d="M3392 4280 c0 -14 2 -19 5 -12 2 6 2 18 0 25 -3 6 -5 1 -5 -13z"/>
<path d="M3658 4283 c7 -3 16 -2 19 1 4 3 -2 6 -13 5 -11 0 -14 -3 -6 -6z"/>
<path d="M2891 4232 c-1 -14 27 -72 35 -72 2 0 -2 12 -9 28 -8 15 -17 34 -20
42 -4 10 -6 11 -6 2z"/>
<path d="M3090 4235 c0 -5 5 -17 10 -25 5 -8 10 -10 10 -5 0 6 -5 17 -10 25
-5 8 -10 11 -10 5z"/>
<path d="M3191 4179 c-7 -12 -10 -23 -8 -26 3 -3 11 5 17 17 6 12 10 23 8 25
-2 2 -10 -5 -17 -16z"/>
<path d="M3130 4150 c12 -22 25 -26 35 -10 3 6 -1 7 -9 4 -11 -4 -16 0 -16 10
0 9 -5 16 -10 16 -7 0 -7 -6 0 -20z"/>
<path d="M3378 4125 c-8 -19 -11 -32 -6 -29 10 7 31 55 25 60 -2 2 -10 -12
-19 -31z"/>
<path d="M2936 4127 c3 -10 9 -15 12 -12 3 3 0 11 -7 18 -10 9 -11 8 -5 -6z"/>
<path d="M2960 4071 c0 -6 4 -13 10 -16 6 -3 7 1 4 9 -7 18 -14 21 -14 7z"/>
<path d="M3319 4043 l-34 -38 38 34 c20 19 37 36 37 38 0 8 -8 0 -41 -34z"/>
<path d="M3259 3993 c-13 -16 -12 -17 4 -4 16 13 21 21 13 21 -2 0 -10 -8 -17
-17z"/>
<path d="M3001 3985 c0 -5 6 -21 14 -35 8 -14 14 -20 14 -15 0 6 -6 21 -14 35
-8 14 -14 21 -14 15z"/>
<path d="M3203 3959 c-18 -12 -33 -23 -33 -25 0 -7 58 25 65 36 9 14 5 13 -32
-11z"/>
<path d="M3110 3900 c-14 -11 -33 -20 -42 -20 -10 0 -18 -4 -18 -9 0 -14 34
-2 66 24 35 29 30 33 -6 5z"/>
<path d="M2408 3433 c7 -3 16 -2 19 1 4 3 -2 6 -13 5 -11 0 -14 -3 -6 -6z"/>
</g>
</svg>
