<?xml version="1.0" standalone="no"?>
<!DOCTYPE svg PUBLIC "-//W3C//DTD SVG 20010904//EN"
 "http://www.w3.org/TR/2001/REC-SVG-20010904/DTD/svg10.dtd">
<svg version="1.0" xmlns="http://www.w3.org/2000/svg"
 width="500.000000pt" height="500.000000pt" viewBox="0 0 500.000000 500.000000"
 preserveAspectRatio="xMidYMid meet">

<g transform="translate(0.000000,500.000000) scale(0.100000,-0.100000)"
fill="#000000" stroke="none">
<path d="M0 2500 l0 -2500 2500 0 2500 0 0 2500 0 2500 -2500 0 -2500 0 0
-2500z m4186 666 c19 -26 8 -72 -34 -136 -90 -140 -199 -236 -403 -354 l-116
-67 13 -37 c7 -20 13 -55 14 -77 0 -36 -6 -45 -80 -118 -44 -43 -86 -77 -93
-75 -7 3 -17 45 -26 109 -7 57 -14 105 -16 107 -7 8 -64 -24 -100 -57 -39 -36
-217 -171 -385 -291 -41 -30 -130 -95 -198 -145 -240 -176 -786 -551 -927
-637 -49 -31 -148 -92 -220 -138 -187 -118 -263 -160 -420 -229 -145 -65 -240
-91 -330 -91 -76 0 -97 20 -103 97 -8 117 69 439 134 558 12 22 51 95 88 163
36 67 84 150 107 183 45 67 45 63 -5 146 l-26 41 26 21 c15 11 30 18 35 15 5
-2 30 -40 56 -84 26 -43 48 -78 50 -77 1 2 -7 45 -19 97 -19 89 -19 95 -2 107
23 16 27 13 79 -65 25 -37 45 -62 45 -57 0 6 -12 50 -26 99 l-27 90 27 23 c15
13 31 23 35 23 4 0 29 -88 56 -196 l49 -197 -23 -18 c-22 -18 -23 -18 -45 9
-12 15 -37 48 -56 74 -18 27 -35 47 -36 45 -2 -1 6 -45 18 -97 l20 -94 -22
-18 c-12 -10 -26 -18 -30 -18 -4 0 -21 21 -38 46 -34 53 -30 56 -76 -54 -35
-83 -86 -280 -86 -331 0 -22 4 -51 9 -64 27 -71 198 -57 383 32 143 68 890
551 1219 788 69 50 209 146 310 213 224 149 349 241 349 255 0 5 -10 16 -22
24 -13 8 -32 20 -44 28 -19 12 -20 11 -16 -15 3 -22 -2 -31 -22 -41 -24 -14
-27 -12 -90 55 l-64 69 40 -83 c38 -80 39 -85 22 -103 -9 -10 -22 -19 -28 -19
-10 0 -136 274 -136 296 0 6 12 17 26 25 26 13 28 12 96 -60 39 -40 69 -70 66
-65 -2 5 -20 43 -41 84 -43 86 -44 95 -16 111 27 14 32 9 70 -81 17 -41 33
-77 35 -79 1 -2 34 11 73 29 79 37 99 36 156 -10 l37 -30 78 68 c219 189 247
209 354 252 124 49 246 61 272 26z m-1239 -348 c26 -29 65 -107 88 -176 14
-44 15 -58 5 -82 -25 -59 -98 -79 -138 -37 -12 12 -37 57 -57 99 -50 109 -46
170 13 202 39 21 65 19 89 -6z m-774 -37 c40 -37 99 -161 105 -221 6 -63 -10
-89 -84 -136 -31 -20 -57 -34 -58 -32 -2 1 -19 39 -39 83 -19 44 -54 122 -77
174 l-42 95 24 18 c42 33 102 58 123 52 11 -4 33 -18 48 -33z m632 -181 c72
-159 73 -162 41 -184 l-26 -16 -24 52 c-13 29 -42 94 -65 144 -22 51 -41 95
-41 99 0 12 45 44 52 37 4 -4 32 -63 63 -132z m-1147 62 c9 9 12 9 12 0 0 -21
-32 -27 -45 -9 -20 28 -28 19 -21 -25 6 -36 5 -40 -9 -28 -12 10 -15 10 -15
-3 0 -23 -28 -47 -55 -47 -15 0 -26 -7 -30 -20 -8 -25 -54 -38 -66 -19 -13 22
-11 55 6 69 12 10 16 9 21 -5 4 -9 1 -22 -6 -28 -10 -10 -12 -8 -7 6 4 9 2 17
-3 17 -11 0 -12 -6 -4 -37 14 -51 64 -5 64 58 0 23 5 39 15 42 23 9 28 -11 11
-39 -15 -22 -15 -25 -1 -31 24 -9 49 22 49 61 0 19 3 33 7 30 4 -2 9 6 12 18
l6 22 24 -22 c18 -17 26 -19 35 -10z m1022 -26 c0 -5 -7 -18 -16 -27 -16 -17
-13 -26 34 -136 l51 -118 -20 -17 c-12 -10 -25 -18 -29 -18 -5 0 -29 51 -55
113 -26 61 -49 115 -52 119 -2 4 -14 1 -27 -7 -21 -14 -23 -14 -34 10 -7 14
-12 28 -12 30 0 3 30 25 68 50 61 41 68 44 80 28 6 -9 12 -21 12 -27z m-1364
-5 c2 -2 15 4 30 13 14 10 28 15 31 13 2 -3 -9 -13 -26 -23 -17 -10 -31 -21
-31 -24 0 -4 18 -36 40 -73 40 -66 53 -98 25 -61 -13 17 -14 18 -15 1 0 -26
-28 -32 -52 -11 l-21 19 6 -43 c4 -34 3 -41 -8 -32 -10 8 -14 5 -19 -15 -8
-31 -53 -46 -71 -22 -13 18 -34 5 -36 -23 0 -10 -3 -9 -9 5 -12 28 -12 37 0
30 15 -9 40 14 40 36 0 11 6 19 13 19 24 0 28 -13 12 -37 -14 -21 -14 -24 0
-29 25 -10 45 15 45 58 0 24 4 37 10 33 6 -3 10 1 10 9 0 20 24 21 40 1 15
-18 30 -11 30 15 0 24 -41 110 -52 110 -5 0 -21 -7 -36 -16 l-27 -16 28 24
c23 20 27 30 22 54 -6 26 -5 27 6 9 7 -11 13 -22 15 -24z m629 -91 c32 -72 62
-133 67 -136 5 -3 20 1 33 10 31 21 31 21 45 -14 10 -23 10 -33 0 -44 -15 -18
-109 -80 -114 -75 -2 2 -39 82 -81 178 l-77 174 24 18 c12 10 28 19 34 19 6 0
37 -59 69 -130z m-160 4 c31 -32 47 -76 43 -124 -3 -48 -2 -49 57 -104 l60
-56 -24 -20 c-13 -11 -27 -20 -33 -20 -5 0 -34 23 -64 52 -30 28 -56 49 -59
46 -3 -2 10 -36 29 -74 l34 -69 -21 -17 c-12 -10 -28 -17 -34 -15 -16 3 -175
336 -167 348 11 19 110 69 136 69 15 0 34 -7 43 -16z m762 -121 c47 -65 90
-123 95 -129 5 -7 -1 -18 -18 -29 -26 -17 -28 -17 -40 0 -21 29 -54 10 -54
-30 0 -26 -6 -39 -25 -51 -14 -9 -27 -15 -28 -13 -6 8 -67 304 -67 323 0 18
26 45 43 46 4 0 46 -53 94 -117z m-169 -103 c78 -178 75 -166 44 -191 l-27
-21 -68 73 -69 74 44 -88 43 -89 -24 -19 c-13 -11 -27 -16 -31 -12 -4 4 -36
72 -70 151 -61 137 -63 143 -44 157 32 25 47 18 112 -52 l63 -68 -43 88 -43
89 24 19 c13 11 27 16 31 12 4 -4 30 -60 58 -123z m-813 76 c32 -32 91 -150
111 -224 14 -51 15 -63 3 -88 -21 -42 -77 -77 -113 -70 -45 9 -65 33 -114 136
-36 75 -46 106 -46 148 -1 49 2 56 36 88 46 42 88 45 123 10z m-397 -69 c14 5
15 3 5 -7 -9 -10 -16 -10 -26 -2 -11 9 -17 4 -30 -23 -12 -26 -23 -35 -41 -35
-13 0 -26 6 -29 13 -7 20 -22 -3 -22 -36 0 -17 -6 -32 -14 -35 -10 -3 -12 1
-9 16 4 13 -1 27 -13 38 -20 18 -25 39 -11 48 5 3 8 -5 8 -17 -2 -39 30 -31
48 13 9 24 22 40 32 40 16 0 16 -11 -1 -52 -11 -28 22 -22 41 7 10 16 14 35
10 52 l-6 28 20 -27 c14 -18 27 -25 38 -21z m1011 -169 c34 -75 61 -141 61
-147 0 -12 -47 -38 -54 -30 -8 8 -126 276 -126 286 0 14 43 43 52 35 3 -4 34
-68 67 -144z m-100 -71 c33 -75 61 -140 61 -144 0 -7 -32 -32 -43 -33 -5 0
-24 33 -43 73 -19 39 -32 63 -30 52 2 -11 7 -41 11 -67 5 -41 4 -47 -15 -53
-16 -5 -30 3 -61 37 l-40 43 36 -72 c19 -40 35 -77 35 -82 0 -6 -10 -16 -22
-22 -28 -15 -32 -10 -104 153 l-58 130 24 19 25 19 63 -68 63 -67 -5 45 c-19
168 -20 156 5 174 13 9 26 12 30 8 3 -4 34 -69 68 -145z m-278 -95 c32 -50 68
-140 76 -187 6 -35 -25 -81 -65 -96 -50 -19 -80 5 -128 104 -62 128 -57 190
19 222 43 18 65 8 98 -43z m-210 -109 c36 -30 84 -125 94 -184 8 -49 -7 -76
-69 -118 -25 -17 -47 -31 -49 -31 -3 0 -12 17 -20 38 -8 20 -38 87 -65 149
l-51 112 46 31 c57 37 73 37 114 3z"/>
<path d="M2877 2763 c-13 -12 -7 -34 29 -113 27 -58 42 -80 55 -80 28 0 24 30
-17 120 -34 74 -50 91 -67 73z"/>
<path d="M2088 2729 c-15 -9 -14 -15 14 -77 16 -37 39 -87 49 -111 16 -36 22
-41 34 -31 23 19 18 66 -15 134 -35 75 -58 98 -82 85z"/>
<path d="M1510 2605 c0 -8 2 -15 4 -15 2 0 6 7 10 15 3 8 1 15 -4 15 -6 0 -10
-7 -10 -15z"/>
<path d="M1210 2415 c0 -8 2 -15 4 -15 2 0 6 7 10 15 3 8 1 15 -4 15 -6 0 -10
-7 -10 -15z"/>
<path d="M1702 2481 c-11 -7 -10 -16 7 -50 12 -22 26 -41 31 -41 19 0 23 50 6
75 -18 27 -24 29 -44 16z"/>
<path d="M2484 2393 c2 -10 7 -28 11 -40 3 -13 13 -23 21 -23 19 0 18 6 -7 46
-23 37 -33 44 -25 17z"/>
<path d="M1487 2334 c-15 -16 -5 -60 34 -144 43 -92 59 -109 80 -84 15 19 2
62 -49 159 -36 67 -51 83 -65 69z"/>
<path d="M1050 2314 c0 -8 5 -12 10 -9 6 3 10 10 10 16 0 5 -4 9 -10 9 -5 0
-10 -7 -10 -16z"/>
<path d="M1703 1964 c-7 -18 39 -138 67 -174 17 -22 21 -23 34 -10 13 13 11
24 -19 94 -46 105 -67 128 -82 90z"/>
<path d="M1516 1832 c-8 -13 72 -177 86 -177 25 0 19 51 -14 115 -30 60 -58
84 -72 62z"/>
</g>
</svg>
