<?xml version="1.0" standalone="no"?>
<!DOCTYPE svg PUBLIC "-//W3C//DTD SVG 20010904//EN"
 "http://www.w3.org/TR/2001/REC-SVG-20010904/DTD/svg10.dtd">
<svg version="1.0" xmlns="http://www.w3.org/2000/svg"
 width="1080.000000pt" height="725.000000pt" viewBox="0 0 1080.000000 725.000000"
 preserveAspectRatio="xMidYMid meet">

<g transform="translate(0.000000,725.000000) scale(0.100000,-0.100000)"
fill="#000000" stroke="none">
<path d="M9915 6759 c-143 -12 -216 -34 -520 -159 -125 -51 -349 -199 -463
-306 -46 -42 -111 -98 -145 -123 -53 -38 -169 -133 -187 -151 -3 -3 -68 -62
-146 -131 l-140 -126 -25 19 c-13 10 -31 25 -39 32 -67 54 -135 97 -192 121
l-66 27 -54 -20 c-29 -11 -116 -49 -193 -86 l-139 -65 -17 37 c-42 92 -108
243 -134 302 -53 124 -67 150 -82 150 -15 0 -119 -65 -128 -80 -12 -19 118
-300 210 -455 44 -75 58 -108 31 -72 -30 40 -186 208 -287 310 -121 123 -105
120 -206 45 -38 -28 -51 -43 -47 -56 8 -23 23 -58 73 -172 24 -52 55 -124 71
-160 42 -97 68 -155 115 -260 23 -52 54 -121 68 -152 15 -33 32 -58 41 -58 8
0 42 19 76 42 54 38 60 46 55 68 -4 14 -55 123 -114 243 -59 119 -104 217
-101 216 3 0 32 -31 64 -67 124 -140 270 -293 288 -303 14 -8 30 -1 78 31 75
51 86 70 65 110 -9 16 -12 30 -8 30 5 0 51 -27 103 -60 52 -33 98 -60 102 -60
4 0 8 -11 8 -25 0 -18 -15 -35 -57 -67 -63 -47 -89 -68 -107 -83 -6 -6 -27
-22 -46 -35 -19 -13 -37 -27 -40 -30 -3 -3 -21 -17 -40 -30 -19 -14 -39 -28
-45 -33 -35 -29 -258 -180 -600 -407 -314 -208 -532 -357 -735 -502 -204 -145
-189 -135 -285 -206 -140 -103 -325 -232 -334 -232 -5 0 -11 -4 -13 -9 -1 -4
-55 -42 -118 -84 -63 -41 -208 -138 -322 -214 -206 -137 -270 -179 -457 -301
-197 -129 -397 -261 -623 -414 -128 -86 -291 -193 -363 -237 -71 -44 -189
-118 -262 -165 -591 -383 -932 -543 -1313 -615 -132 -25 -248 -15 -383 31 -50
17 -73 66 -88 189 -14 112 -4 199 35 319 13 41 36 133 51 204 27 135 98 362
142 456 14 30 40 91 58 136 19 44 42 97 53 118 l20 37 35 -50 c19 -27 43 -63
52 -81 30 -58 87 -131 99 -127 21 8 146 98 146 106 0 3 -12 51 -26 106 -14 55
-38 165 -54 245 -16 80 -32 155 -36 168 -15 51 23 14 81 -79 22 -36 161 -226
194 -266 19 -24 40 -43 45 -43 5 0 36 17 68 38 65 42 66 46 42 137 -52 200
-108 418 -119 470 -21 101 -116 478 -127 508 -6 15 -13 27 -15 27 -10 0 -142
-92 -158 -110 -16 -17 -16 -23 -1 -83 9 -36 28 -102 42 -148 45 -148 94 -324
94 -338 0 -13 -19 9 -57 66 -134 199 -217 320 -224 327 -5 6 -31 -6 -65 -28
-45 -30 -55 -42 -51 -59 2 -12 25 -114 50 -227 26 -113 49 -225 52 -250 6 -43
6 -44 -10 -25 -9 11 -36 56 -61 100 -69 122 -194 328 -209 344 -12 12 -25 7
-94 -39 -45 -29 -81 -58 -81 -64 0 -7 24 -49 52 -94 99 -155 143 -226 149
-241 4 -10 -8 -37 -32 -71 -98 -138 -166 -239 -190 -280 -87 -151 -167 -295
-227 -412 -39 -73 -96 -180 -129 -238 -81 -146 -145 -278 -187 -390 -69 -182
-175 -617 -242 -990 -19 -107 -22 -364 -4 -429 15 -57 84 -124 145 -141 78
-23 232 -13 405 25 36 8 102 21 148 30 83 16 213 67 370 144 46 23 118 55 160
72 153 61 376 168 537 259 72 40 139 78 150 84 11 6 72 45 135 87 63 41 149
96 190 121 41 25 127 78 190 118 63 40 131 82 150 94 19 11 94 60 166 108 72
47 175 112 230 143 161 92 262 160 1214 810 80 54 244 172 365 260 121 89 270
193 330 230 88 55 250 170 275 195 8 8 110 83 205 151 92 65 248 180 275 202
9 7 78 59 155 116 77 57 156 116 175 131 19 15 76 54 125 87 50 33 127 87 171
119 287 207 351 255 372 271 272 213 422 334 482 390 77 71 86 78 141 99 24 9
51 23 60 31 27 23 36 14 37 -39 0 -29 6 -80 11 -113 14 -82 39 -266 46 -342 7
-75 30 -136 50 -131 34 7 453 420 468 461 15 38 -11 262 -39 335 -29 77 -31
73 71 127 38 20 88 50 110 65 22 15 72 44 110 65 170 92 319 185 429 269 65
50 131 100 145 110 84 63 194 164 251 231 36 42 84 95 106 118 23 24 95 123
161 222 l120 180 6 89 c7 93 -4 138 -40 168 -18 15 -163 18 -308 7z"/>
<path d="M6630 5800 c-73 -40 -123 -96 -145 -165 -16 -52 -16 -63 -2 -143 8
-48 26 -112 39 -142 14 -30 38 -84 53 -120 48 -110 116 -233 149 -269 90 -97
224 -92 335 12 81 77 90 167 36 337 -42 129 -171 390 -222 450 -67 77 -149 91
-243 40z m113 -178 c38 -42 217 -437 217 -479 0 -31 -34 -63 -67 -63 -22 0
-35 10 -60 48 -65 95 -183 379 -183 439 0 63 56 96 93 55z"/>
<path d="M4465 5744 c-60 -22 -265 -165 -265 -185 0 -17 28 -81 111 -257 27
-56 60 -131 73 -166 13 -35 29 -72 34 -82 13 -23 82 -178 147 -329 26 -60 52
-115 59 -122 8 -9 40 6 131 63 210 131 265 195 273 320 9 140 -118 458 -253
634 -95 124 -198 165 -310 124z m106 -214 c32 -17 111 -144 157 -250 77 -180
96 -273 68 -328 -17 -33 -62 -60 -76 -46 -5 5 -29 54 -53 109 -25 55 -83 184
-131 287 -47 103 -86 192 -86 197 0 14 50 40 78 41 13 0 32 -5 43 -10z"/>
<path d="M6222 5506 c-34 -22 -65 -50 -68 -61 -5 -20 8 -54 74 -195 41 -89 96
-212 200 -447 41 -95 81 -173 88 -173 6 0 43 21 82 46 78 51 75 40 34 134 -11
25 -47 103 -81 173 -33 71 -61 131 -61 134 0 13 -183 409 -193 419 -9 9 -27 2
-75 -30z"/>
<path d="M3326 5398 c-14 -88 -57 -113 -97 -55 -41 59 -73 72 -104 40 -13 -12
-15 -26 -10 -61 7 -49 -5 -51 -25 -2 -7 16 -19 30 -26 30 -18 0 -17 -18 1 -50
30 -52 10 -163 -37 -211 -41 -40 -74 -47 -101 -20 l-21 21 26 27 c27 28 48 72
48 99 0 24 -37 53 -60 47 -37 -10 -51 -45 -60 -158 -9 -117 -21 -145 -77 -178
-38 -22 -83 -9 -83 23 0 11 4 20 8 20 14 0 52 76 52 105 0 28 -20 55 -42 55
-57 -2 -88 -111 -52 -187 35 -72 103 -81 161 -20 34 35 63 87 63 112 0 15 2
15 22 1 47 -33 110 -11 158 56 17 22 30 50 30 62 0 42 15 47 34 11 35 -64 49
-39 30 50 -16 71 -18 155 -5 155 6 0 23 -17 38 -37 37 -51 42 -54 83 -51 30 3
38 9 58 48 25 50 30 110 8 110 -8 0 -16 -16 -20 -42z m-385 -198 c-1 -13 -12
-35 -22 -49 l-19 -24 0 36 c0 48 9 69 29 65 11 -2 15 -11 12 -28z m-211 -126
c0 -23 -29 -74 -42 -74 -13 0 -4 66 13 86 13 16 29 10 29 -12z"/>
<path d="M5875 5274 c-93 -63 -175 -120 -182 -127 -11 -11 -9 -23 9 -68 13
-31 30 -65 38 -78 l15 -22 58 37 c32 20 61 34 64 31 8 -8 75 -158 132 -297 80
-194 155 -350 168 -350 15 0 133 80 133 90 0 8 -24 70 -40 105 -5 11 -23 52
-39 90 -37 91 -129 304 -141 330 -17 36 -60 148 -57 150 1 1 23 16 50 34 26
18 47 37 47 43 0 22 -63 148 -74 147 -6 0 -87 -52 -181 -115z"/>
<path d="M3832 5325 c-45 -31 -82 -57 -82 -58 0 -7 82 -196 110 -252 43 -90
89 -191 122 -275 16 -41 42 -100 58 -130 16 -30 40 -82 53 -115 69 -168 85
-200 100 -203 8 -2 37 12 64 31 26 18 89 61 138 95 50 34 103 72 119 86 l28
24 -35 78 c-20 44 -42 83 -50 88 -10 6 -33 -5 -79 -37 -36 -26 -72 -47 -80
-47 -13 0 -47 64 -166 320 -36 77 -69 153 -155 355 -30 71 -44 95 -56 95 -3 0
-43 -25 -89 -55z"/>
<path d="M2290 5340 c0 -6 11 -37 24 -70 28 -68 31 -61 -66 -124 -32 -21 -55
-42 -52 -47 9 -15 23 -10 84 31 32 22 63 40 69 40 5 0 23 -28 40 -62 17 -35
49 -94 71 -131 22 -38 40 -81 40 -96 0 -45 -20 -89 -42 -94 -20 -6 -34 5 -85
67 -40 48 -75 29 -83 -46 l-6 -53 -19 38 c-19 37 -55 55 -40 20 28 -67 32 -99
20 -157 -10 -47 -19 -66 -48 -93 -40 -36 -77 -42 -98 -17 -10 12 -10 19 -1 32
40 55 52 80 52 108 0 36 -16 54 -47 54 -29 0 -63 -52 -63 -98 0 -26 -7 -36
-32 -52 -38 -23 -64 -26 -71 -7 -3 8 -8 9 -15 2 -8 -7 -4 -32 15 -88 14 -43
23 -81 19 -84 -11 -12 -58 21 -84 60 -56 79 -64 89 -75 78 -6 -6 -3 -22 12
-46 24 -42 25 -54 10 -127 -15 -70 -64 -121 -110 -116 -34 3 -62 33 -44 46 45
31 71 115 45 147 -30 36 -86 -4 -97 -71 -3 -21 -17 -56 -30 -77 -13 -21 -28
-49 -33 -62 -12 -33 -20 -32 -69 11 -48 42 -51 57 -16 80 14 9 25 20 25 25 0
16 -47 9 -63 -9 -32 -36 -18 -74 50 -137 43 -39 43 -41 32 -77 -13 -40 -8 -65
16 -74 38 -15 75 72 44 103 -13 13 1 62 30 107 l19 29 16 -31 c50 -98 186 -31
218 107 11 51 12 51 32 32 37 -33 64 -43 86 -31 24 13 25 40 5 106 -8 27 -15
50 -15 52 0 1 7 2 15 2 9 0 27 8 42 17 24 16 26 16 39 -3 34 -46 45 -54 76
-54 64 0 129 63 144 139 8 39 18 39 34 1 7 -16 19 -30 26 -30 17 0 17 -3 -1
100 -26 146 -17 163 48 85 58 -68 109 -59 138 24 l12 33 37 -43 c63 -74 51
-29 -27 96 -41 66 -94 159 -118 206 l-44 87 94 62 c52 35 95 66 95 71 0 23
-25 13 -101 -37 -46 -31 -89 -58 -95 -61 -6 -2 -21 23 -34 56 -12 34 -29 61
-36 61 -8 0 -14 -5 -14 -10z m-170 -645 c0 -23 -29 -75 -41 -75 -11 0 -5 63 7
82 9 14 34 8 34 -7z m-430 -275 c0 -31 -30 -85 -39 -71 -5 7 -6 24 -3 39 8 48
42 73 42 32z m-149 -323 c-13 -13 -15 1 -4 30 7 17 8 17 11 -1 2 -10 -1 -23
-7 -29z"/>
<path d="M3414 5030 c-96 -48 -254 -157 -254 -174 0 -7 41 -100 91 -207 50
-107 107 -230 126 -274 18 -44 58 -129 87 -190 29 -60 73 -152 96 -202 24 -51
46 -93 51 -93 9 0 157 98 163 109 3 4 -21 61 -54 127 -74 150 -130 269 -130
278 0 18 30 -4 137 -101 134 -121 210 -183 225 -183 12 0 148 111 148 121 0 6
-116 114 -209 194 -20 17 -59 52 -88 79 l-52 48 15 30 c37 71 20 242 -31 320
-14 20 -25 40 -25 44 0 15 -65 86 -91 99 -52 27 -117 19 -205 -25z m118 -194
c52 -60 72 -150 44 -204 -16 -30 -47 -49 -65 -38 -9 6 -111 212 -111 225 0 7
35 31 60 43 21 9 51 -1 72 -26z"/>
<path d="M5432 4968 l-63 -41 6 -41 c19 -127 44 -249 111 -546 13 -58 33 -152
44 -210 32 -165 25 -159 115 -102 l75 47 -5 45 c-4 25 -9 61 -12 81 -5 34 -3
37 46 67 28 18 57 32 64 32 7 0 23 -17 35 -39 37 -66 43 -67 111 -21 34 23 64
46 67 52 4 5 -16 41 -42 78 -27 38 -76 106 -108 152 -57 80 -95 131 -275 376
-46 61 -88 112 -95 112 -6 0 -39 -19 -74 -42z m261 -535 c-40 -33 -49 -29 -67
25 -17 53 -56 206 -56 219 0 4 34 -44 76 -107 l75 -115 -28 -22z"/>
<path d="M5060 4719 c-78 -52 -77 -45 -31 -153 55 -128 117 -253 174 -349 49
-83 59 -107 27 -69 -100 120 -353 388 -381 402 -11 7 -34 -3 -82 -35 -36 -24
-68 -49 -72 -55 -3 -6 13 -52 36 -103 23 -50 48 -105 55 -122 108 -246 134
-306 134 -310 0 -3 18 -42 39 -87 22 -46 51 -109 65 -140 14 -32 31 -58 39
-58 8 0 42 19 76 42 54 36 61 45 56 65 -8 33 -188 405 -215 445 -25 37 50 -38
219 -220 62 -68 122 -127 132 -133 15 -8 31 -2 77 30 92 62 91 53 33 193 -28
68 -58 137 -65 153 -24 49 -64 140 -138 310 -110 255 -100 245 -178 194z"/>
<path d="M2800 4646 c-73 -39 -141 -105 -167 -163 -29 -67 -31 -168 -4 -268
33 -121 174 -432 240 -529 86 -125 206 -159 335 -96 124 61 186 153 186 276 0
135 -196 595 -311 732 -47 55 -86 72 -164 71 -53 0 -81 -5 -115 -23z m200
-352 c41 -82 85 -172 97 -199 96 -223 101 -249 63 -290 -30 -32 -70 -32 -99
-1 -61 64 -234 450 -248 551 -6 49 10 79 52 95 42 16 59 -3 135 -156z"/>
<path d="M4493 4330 c-89 -59 -89 -60 -63 -127 13 -32 31 -74 41 -93 9 -19 36
-78 59 -130 24 -52 64 -140 90 -195 26 -55 51 -111 55 -125 17 -53 94 -210
104 -210 12 0 151 87 151 94 0 7 -35 85 -90 201 -28 60 -63 137 -77 170 -47
112 -186 420 -198 438 -11 16 -17 14 -72 -23z"/>
<path d="M4212 4139 c-56 -37 -62 -44 -62 -75 0 -32 13 -160 41 -412 7 -56 10
-105 7 -108 -3 -3 -48 41 -99 97 -200 219 -224 244 -237 247 -12 4 -121 -63
-134 -82 -7 -10 1 -35 33 -98 11 -24 47 -101 78 -173 117 -263 254 -545 266
-545 19 0 135 80 135 93 0 7 -47 106 -104 220 -57 114 -103 207 -101 207 1 0
49 -52 106 -115 57 -64 114 -118 126 -121 14 -4 36 2 58 16 39 24 42 38 25
145 -5 33 -15 103 -23 155 -9 52 -14 96 -13 97 1 1 15 -28 31 -65 15 -37 41
-94 56 -127 15 -33 43 -96 63 -140 19 -44 41 -81 50 -83 18 -4 136 74 136 89
0 11 -49 119 -166 370 -34 74 -76 169 -93 210 -41 102 -99 227 -109 233 -5 3
-36 -13 -70 -35z"/>
<path d="M3433 3625 c-42 -18 -128 -99 -148 -137 -51 -103 -21 -240 112 -518
67 -139 107 -196 159 -229 97 -62 189 -46 285 48 90 88 100 156 45 322 -80
240 -205 470 -279 513 -35 20 -129 21 -174 1z m90 -177 c26 -21 122 -220 207
-430 27 -66 20 -99 -26 -120 -32 -15 -49 -5 -86 48 -53 76 -187 398 -188 450
0 20 41 64 59 64 9 0 25 -6 34 -12z"/>
<path d="M2925 3252 c-48 -20 -216 -132 -222 -148 -4 -11 36 -108 99 -244 20
-41 52 -114 71 -161 20 -47 51 -119 69 -160 19 -41 52 -113 73 -161 22 -49 45
-88 51 -88 20 0 184 106 240 154 73 63 98 122 90 206 -16 170 -151 451 -269
561 -29 27 -103 59 -134 58 -16 0 -46 -8 -68 -17z m80 -178 c20 -8 95 -115
124 -178 95 -206 107 -300 44 -341 -25 -17 -27 -17 -39 0 -8 10 -27 52 -45 93
-17 42 -62 141 -100 220 -85 178 -87 185 -57 200 27 12 50 14 73 6z"/>
</g>
</svg>
