<?xml version="1.0" standalone="no"?>
<!DOCTYPE svg PUBLIC "-//W3C//DTD SVG 20010904//EN"
 "http://www.w3.org/TR/2001/REC-SVG-20010904/DTD/svg10.dtd">
<svg version="1.0" xmlns="http://www.w3.org/2000/svg"
 width="379.000000pt" height="368.000000pt" viewBox="0 0 379.000000 368.000000"
 preserveAspectRatio="xMidYMid meet">

<g transform="translate(0.000000,368.000000) scale(0.100000,-0.100000)"
fill="#000000" stroke="none">
<path d="M1695 3669 c-377 -36 -744 -185 -1030 -419 -102 -83 -250 -242 -328
-350 -77 -109 -190 -328 -230 -445 -67 -200 -97 -384 -97 -593 0 -572 277
-1112 751 -1467 318 -238 685 -366 1094 -382 916 -35 1716 579 1894 1454 146
713 -172 1463 -794 1878 -282 189 -596 297 -939 325 -144 11 -191 11 -321 -1z
m95 -1361 c44 -72 59 -211 26 -247 -17 -18 -113 -58 -121 -50 -6 6 -55 259
-55 283 0 26 35 43 93 45 32 1 40 -4 57 -31z m-470 -18 c0 -11 -4 -20 -10 -20
-5 0 -10 9 -10 20 0 11 5 20 10 20 6 0 10 -9 10 -20z m1264 3 c2 -10 10 -44
16 -77 l12 -58 51 7 c79 12 90 9 122 -28 l29 -35 151 77 c120 62 166 80 228
91 88 15 203 8 225 -14 25 -25 -3 -75 -76 -138 -83 -73 -168 -117 -318 -168
l-119 -39 -3 -38 c-5 -73 -10 -81 -89 -133 -41 -27 -80 -50 -84 -50 -5 0 -6
43 -2 95 7 112 24 110 -155 23 -67 -32 -157 -73 -200 -90 -42 -17 -144 -60
-227 -95 -82 -36 -193 -82 -245 -103 -52 -21 -176 -70 -275 -110 -207 -83
-647 -241 -750 -270 -222 -60 -402 -74 -462 -34 -24 15 -25 20 -20 73 5 60 52
176 121 300 41 73 187 251 284 345 l50 48 -19 56 c-20 58 -16 71 22 72 14 0
39 -38 39 -60 0 -5 5 -21 12 -37 12 -26 13 -24 18 42 4 61 7 70 25 70 14 0 24
-12 35 -42 24 -66 30 -62 30 20 0 43 3 77 8 77 4 0 17 3 30 6 l23 6 -3 -163
c-3 -157 -4 -164 -23 -167 -17 -2 -26 8 -44 53 -28 66 -38 59 -39 -26 -1 -68
1 -64 -29 -73 -18 -6 -23 -1 -33 29 -6 19 -17 35 -23 35 -16 0 -87 -107 -136
-207 -29 -59 -41 -95 -41 -127 0 -41 3 -45 38 -62 49 -25 174 -22 287 6 133
33 766 266 1073 394 74 31 200 81 280 112 187 71 302 124 302 139 0 7 -9 20
-20 30 -18 16 -20 16 -35 1 -30 -29 -53 -19 -81 35 -14 28 -27 49 -30 47 -2
-2 2 -30 8 -62 11 -48 10 -59 -2 -66 -8 -6 -20 -10 -26 -10 -6 0 -21 56 -34
126 -19 106 -21 127 -9 135 26 16 37 9 74 -48 38 -60 37 -61 15 35 -6 24 -4
37 7 47 19 20 31 19 37 -2z m-1333 -27 c-9 -11 -9 -15 1 -19 9 -4 9 -6 1 -6
-19 -1 -26 18 -12 35 6 8 14 12 17 9 3 -2 0 -11 -7 -19z m-68 -11 c-3 -9 -8
-14 -10 -11 -3 3 -2 9 2 15 9 16 15 13 8 -4z m376 -37 c6 -29 17 -82 24 -118
8 -36 18 -64 23 -63 5 0 18 3 29 5 16 2 20 -3 20 -26 0 -26 -6 -32 -48 -49
-60 -25 -60 -25 -82 98 -8 49 -21 112 -27 139 -8 39 -8 50 3 57 33 21 47 10
58 -43z m-518 -41 c-13 -13 -15 1 -4 30 7 17 8 17 11 -1 2 -10 -1 -23 -7 -29z
m1364 9 c8 -19 20 -66 26 -106 11 -66 11 -73 -8 -98 -25 -34 -81 -42 -106 -15
-25 29 -48 152 -36 196 11 42 31 56 77 57 28 0 35 -5 47 -34z m-1423 -12 c-6
-11 -11 -13 -16 -5 -4 6 -2 11 3 11 6 0 11 8 12 18 0 9 3 12 5 5 3 -7 1 -20
-4 -29z m473 -8 c14 -37 15 -50 5 -81 -11 -34 -10 -39 24 -88 34 -48 35 -53
19 -64 -27 -21 -37 -16 -72 33 -18 25 -34 44 -37 41 -3 -2 0 -25 7 -51 13 -53
7 -76 -20 -76 -22 0 -27 12 -57 155 -10 44 -18 95 -18 114 -1 30 3 36 34 47
19 7 49 13 67 13 28 1 33 -3 48 -43z m771 -9 c2 -7 15 -63 28 -125 23 -114 21
-132 -14 -132 -24 0 -71 247 -49 261 19 12 29 11 35 -4z m-1386 -32 c0 -8 -4
-15 -10 -15 -5 0 -7 7 -4 15 4 8 8 15 10 15 2 0 4 -7 4 -15z m403 -3 c23 -25
46 -104 53 -182 5 -57 3 -68 -15 -92 -13 -16 -36 -30 -57 -34 -30 -5 -40 -2
-60 17 -27 28 -55 125 -56 200 -1 46 2 55 30 80 37 33 81 38 105 11z m912 -3
c5 -14 1 -25 -11 -33 -17 -13 -17 -18 0 -112 16 -93 16 -99 0 -111 -9 -7 -20
-10 -25 -8 -4 3 -15 48 -24 100 -16 89 -19 95 -41 95 -19 0 -24 5 -24 24 0 19
10 27 53 44 66 26 64 26 72 1z m-1355 -39 c0 -11 -4 -20 -9 -20 -5 0 -7 9 -4
20 3 11 7 20 9 20 2 0 4 -9 4 -20z m1222 -129 c27 -62 46 -117 43 -122 -8 -13
-45 -11 -45 2 0 22 -44 4 -50 -21 -4 -16 -14 -26 -28 -28 -22 -3 -22 -2 -22
132 0 118 2 136 18 145 9 6 21 9 26 8 6 -2 32 -54 58 -116z m-178 60 c12 -18
48 -231 42 -246 -11 -30 -44 -16 -72 30 -14 25 -28 45 -31 45 -5 0 3 -58 13
-92 5 -16 -31 -46 -42 -35 -3 2 -15 60 -29 128 -25 127 -23 138 15 139 9 0 29
-22 45 -50 16 -27 31 -48 33 -46 2 3 -2 30 -9 61 -11 48 -10 58 2 66 18 11 26
11 33 0z m-157 -191 c13 -63 21 -121 18 -128 -3 -7 -15 -12 -27 -10 -19 3 -24
16 -45 118 -12 63 -21 121 -18 128 3 7 15 12 27 10 19 -3 24 -17 45 -118z
m-117 85 c0 -3 12 -59 26 -126 14 -67 24 -122 22 -124 -2 -2 -12 -5 -22 -7
-15 -2 -22 5 -30 34 -15 49 -26 58 -26 19 0 -45 -26 -52 -55 -15 l-24 29 13
-52 c10 -37 11 -54 3 -62 -18 -18 -36 -13 -42 12 -3 12 -14 60 -25 107 -25
108 -25 126 0 133 16 4 27 -4 46 -35 14 -22 28 -46 31 -54 11 -30 21 -11 28
56 5 49 12 73 24 80 18 10 31 13 31 5z m-226 -110 c20 -20 35 -74 43 -151 5
-54 3 -64 -16 -83 -16 -16 -32 -21 -59 -19 -32 3 -40 9 -55 40 -10 21 -21 71
-24 111 -5 71 -5 74 22 95 32 26 67 28 89 7z m-177 -70 c40 -28 68 -169 43
-215 -10 -18 -96 -58 -105 -48 -9 8 -51 238 -45 247 5 8 56 29 75 30 6 1 20
-6 32 -14z"/>
<path d="M1705 2258 c3 -13 11 -54 19 -91 8 -37 16 -71 19 -74 14 -14 27 13
27 57 0 65 -26 130 -51 130 -15 0 -18 -5 -14 -22z"/>
<path d="M3061 2136 c-9 -10 -8 -16 4 -26 8 -7 15 -21 15 -32 0 -23 28 -21 43
3 8 13 6 24 -6 43 -19 29 -39 33 -56 12z"/>
<path d="M2327 2157 c-7 -19 18 -136 32 -150 14 -14 33 9 26 33 -2 8 -9 41
-15 73 -11 55 -31 75 -43 44z"/>
<path d="M1366 2152 c-8 -13 9 -65 22 -70 18 -6 26 26 14 54 -12 24 -27 31
-36 16z"/>
<path d="M1177 2074 c-17 -17 5 -175 27 -193 7 -6 18 -6 26 -1 11 7 10 23 -6
101 -18 86 -30 110 -47 93z"/>
<path d="M1964 1930 c3 -14 6 -28 6 -32 0 -5 5 -8 10 -8 15 0 12 24 -6 46 -15
18 -15 18 -10 -6z"/>
<path d="M1284 1745 c-9 -21 11 -134 26 -149 7 -7 13 -7 21 1 7 7 7 30 -1 76
-13 70 -34 104 -46 72z"/>
<path d="M1116 1682 c-8 -14 23 -152 34 -152 17 0 22 22 15 71 -7 52 -36 101
-49 81z"/>
</g>
</svg>
